<svg viewBox="0 0 16 16" xmlns="http://www.w3.org/2000/svg"><g stroke-width="0.3"><path d="M8,1C5.221626257697208,1 2.2658444377038296,3.696052071074686 5.750300650445881,5.750300650445881C9.949708958083317,8.226046655982618 12.937432790445099,3.4687163952225517 8,1M11,3C12.222183719611948,3 14,2.0610470655012607 14,1M14,0C14,0.9844687844563562 14.015531215543644,1 15,1M5,3C3.599715517272739,3 2.964746149811721,1.964746149811721 2,1M1,1C1.984468784456356,1 2,0.984468784456356 2,0M6,5C4.559368441321075,5 4.033470480680215,4.966529519319785 3,6M9,5C9.666666666666666,5.666666666666672 10.333333333333334,6.333333333333329 11,7" fill="none" stroke="#000000" /></g></svg>