<svg viewBox="0 0 16 16" xmlns="http://www.w3.org/2000/svg"><g stroke-width="0.3"><path d="M7,6C5.074366111900757,6.51407693180667 4.950476635323324,7.104102435862531 4,8.716706210093442C3.095975633279007,10.25049783799082 1.6350164505940854,10.182949745953247 0.5675631875330228,11.432436812466976C-1.5610475280820588,13.924041504532482 2.616566818871064,15.524437804666034 4.536498689920026,15C7.237330362092319,14.2622559923688 9.32785652327274,7.461745468445241 8,6M7,6C8.000000000000002,4.666666666666667 8.999999999999996,3.333333333333332 10,2M9,6C9.999999999999998,4.666666666666664 10.999999999999996,3.3333333333333317 12,2M11,2C9.362190483251158,0.36219048325115644 12.741214066074729,-0.26417896559854 13,0.03612060531659166C14.144289481506602,1.3639734568489352 12.119296074938793,3 11,3M10,2C10.333333333333336,2 10.666666666666664,2 11,2" fill="none" stroke="#000000" /></g></svg>