<svg viewBox="0 0 16 16" xmlns="http://www.w3.org/2000/svg"><g stroke-width="0.3"><path d="M8,2C5.647050574772722,2 3.475676717804693,4.876334020563499 6.640609098697569,5C9.462085683546611,5.11024585151613 11.500209192526839,2 8,2M6,2C6,0.5156673256633983 8,0.5156673256633983 8,2M9,2C9.900045414565106,1.0999545854348942 12,0.0751008450433488 12,2M10,3C11.226696540771142,1.7733034592288575 11.773303459228856,1.7733034592288563 13,3M10,4C11.440631558678923,4 11.966529519319788,3.9665295193197814 13,5M5,1C3.773303459228856,-0.22669654077114165 3.226696540771144,-0.2266965407711441 2,1M5,2C3.5593684413210744,2 3.0334704806802155,1.9665295193197845 2,3M5,4C3.5593684413210753,4 3.0334704806802155,3.9665295193197845 2,5M6,3C6,3.333333333333333 6,3.666666666666667 6,4C6.333333333333334,4 6.666666666666667,4 7,4" fill="none" stroke="#000000" /></g></svg>