<svg viewBox="0 0 16 16" xmlns="http://www.w3.org/2000/svg"><g stroke-width="0.3"><path d="M8,0C4.889289483360274,0 1.8909612949251446,4.945599350768822 5.987229437520037,5C9.894655362195257,5.051892722772394 11.916567953489253,0 7,0M5,2C2.876473258348205,2 1.5256029070078303,2.474397092992169 0,4M4,3C2.599715517272739,3 1.9647461498117207,4.03525385018828 1,5M4,4C3.333333333333334,4.666666666666669 2.6666666666666674,5.333333333333332 2,6M11,1C12.35035876572958,-0.3503587657295857 13.649641234270417,-0.35035876572958147 15,1M10,2C11.710409700458326,2 12.760425852142795,1.7604258521427958 14,3M10,3C11.137247631404898,3.5686238157024524 12,3.6563504204268455 12,5M7,4C5.002238832876259,4 7.99776116712374,4 6,4M8,4C9.015125165168982,4 9.015125165168984,4 8,4M6,5C6.333333333333334,5 6.666666666666667,5 7,5" fill="none" stroke="#000000" /></g></svg>