<svg viewBox="0 0 16 16" xmlns="http://www.w3.org/2000/svg"><g stroke-width="0.3"><path d="M3,2C1.0391554197327184,3.9608445802672816 -1.432886639906263,6.2164433199531315 3,4M3,2C9.022910981947032,-4.022910981947031 9.10358510080369,9.10358510080369 4,4M5,5C5,6.3215973108032 4.825917965571741,6.825917965571741 5.787644310378976,7.787644310378976C6.336382898283507,8.336382898283507 7.282430565475534,9.69170364315058 7.989502183131048,9.989502183131048C12.833028227200266,12.029458176646717 15.217359653931183,4 8,4M8,5C8,9.304051673854833 15.2181670838844,5 10,5M10,10C10,11.335487311124183 10.55892330393718,13 9,13M10,13C10,13.333333333333332 10,13.66666666666667 10,14M10,13C10.333333333333334,13.333333333333334 10.666666666666666,13.666666666666666 11,14M12,9C12,10.929492299623444 12.400284482727264,12.599715517272736 11,14M12,14C12.333333333333336,14.333333333333336 12.666666666666664,14.666666666666664 13,15M12,14C12.333333333333336,14.333333333333336 12.666666666666664,14.666666666666664 13,15M12,6C12.335500832577479,5.664499167422521 14.861839168597868,2.7469470353627328 15,4.484263690882982C15.02244949168894,4.766556982138889 14.222232330722749,5.9975720547963425 14.226395536324473,6C17.014361876020686,7.625917658166853 14.949515862474088,8 12,8" fill="none" stroke="#000000" /></g></svg>