<svg viewBox="0 0 16 16" xmlns="http://www.w3.org/2000/svg"><g stroke-width="0.3"><path d="M3,11C-3.1022205256413704,6.605964395735947 3.6652060481313455,-1.970566801201361 8.787027195437675,1.7870271954376742C13.479233354574136,5.229436679774429 9.86350673031135,8.19025811395403 8.11957445300808,10.940212773495961C6.759497270686217,13.08487781212134 9.23808515624368,13.211670946110058 8,15.38227898569156C7.387053347847223,16.45689564213706 5.419380445261307,16.07522193939812 5,15.101753725967669C-1.193819104295918,0.7246264996052307 11.112426558478589,24.113679297503246 4,11M5,13C6,13 7,13 8,13M7,13C7,13.333333333333332 7,13.66666666666667 7,14M6,13C6,13.333333333333332 6,13.66666666666667 6,14M5,5C3.507465557806859,6.492534442193141 4.597636350703104,9.586783568306538 6,7.963879394683408C6.823604688896266,7.0107518034944345 5.954653583931942,5 5,5M9,5C8.000874765499312,5.9991252345006885 7.838270959933052,8.93187396419031 10.016510973630776,7.983489026369223C12.379535988816825,6.954650460369082 10.81718092039134,5 9,5" fill="none" stroke="#000000" /></g></svg>