<svg viewBox="0 0 16 16" xmlns="http://www.w3.org/2000/svg"><g stroke-width="0.3"><path d="M2,10C-2.866740793943732,4.797145725960833 3.3536807047430175,-1.5156799831695054 9.430262577556372,0C13.634884058281683,1.0487574673604052 14.28752167655866,7.752857443892829 10,9M2,10C2,10.820709900612213 1.4974253846691523,14.637085138348988 2.3684210526315783,15C7.485818376134427,17.13224888479286 9,14.14436610060136 9,10M3,11C3,12.333333333333334 3,13.666666666666666 3,15M5,11C5,12 5,13.000000000000002 5,14M7,11C7,12 7,13.000000000000002 7,14M4,4C2.2828974204106993,4 0.9551800691655052,6.251034834702187 3.079722032934811,7C5.824191428329186,7.967508295637287 7.251166386313421,4 4,4M9,4C8.232282577178937,4 6.282447948280129,6.690225533552359 7.319529884835024,7C10.020879698913273,7.806888219579196 11.085899660174967,4 8,4M5,8C5,8.333333333333332 5,8.666666666666668 5,9" fill="none" stroke="#000000" /></g></svg>