<svg viewBox="0 0 16 16" xmlns="http://www.w3.org/2000/svg"><g stroke-width="0.3"><path d="M0,7C0.084065682804736,6.249267650528597 -0.07999037630572642,5.426270057955891 0.25219704841420804,4.747802951585792C3.7955805740047457,-2.489283670202358 8.931441939857145,8.884619484482332 11.1339879771211,7.8660120228789C14.846113659082302,6.149272007422746 10.400767847830942,5.835744033414779 11,4.5114049754178245C11.737961592655628,2.880465519118821 13.782620077313032,4.474621821437242 14.201915997097844,5C15.19240486897161,6.24108348027519 12.358322014732144,8.408237073252009 11.556529668874846,9C8.233509434897432,11.452555439649032 4.077009043340467,8.584089122593197 1,7M4,3C4,0.7420641502998295 4.445896368643837,0 2,0M4,3C4,1.6496412342704168 4.649641234270418,1 6,1M4,3C5.033470480680219,1.9665295193197847 5.559368441321071,2 7,2M4,3C4,1.649641234270417 3.3503587657295832,1 2,1" fill="none" stroke="#000000" /></g></svg>