<svg viewBox="0 0 16 16" xmlns="http://www.w3.org/2000/svg"><g stroke-width="0.3"><path d="M7,2C7,0.3344604429686424 4.509433691526566,0.710977655637796 4,2.0781727039072933C3.0541434409747756,4.616619660561074 6.314129594037359,6.488434473155939 8.437563605209725,6C10.649523917079458,5.491202616193642 7.549693865251462,2.549693865251462 7,2M8,3C8,-1.1439792059927472 15.338919372756333,-0.169459686378167 9,3M4,2C1.5187692959351429,-0.48123070406485713 -0.6978631554604466,3 3,3M6,6C0.6475375572782758,11.352462442721723 12.361973551075984,12.416156430899044 8.636414899580883,7.636414899580883C8.17810849943488,7.048426267602784 7.527612339488366,6.527612339488366 7,6M9,10C13.392504278250627,10 10.75276511866063,6.477615134818399 12.78337924350083,4.21662075649917C13.207111876090043,3.7448141791318363 14.892552152030882,1.5588671763308408 15.768595813795642,2C17.030003658874374,2.6351834146908444 15.164574196760704,4.822977044114418 14.817740963207488,5.182259036792512C12.468016109078134,7.616321710625952 12.785999694965875,9 9,9M5,8C1.5418460742968567,8 1.7497636428006351,11.250236357199368 4,9M5,11C5,11.914390094242217 6,13.857881777215049 6,12M7,11C7,12.346891860317537 8,12.34689186031754 8,11" fill="none" stroke="#000000" /></g></svg>