<svg viewBox="0 0 16 16" xmlns="http://www.w3.org/2000/svg"><g stroke-width="0.3"><path d="M5,1C1.5332136039938815,1 2.896711685866202,5.371635478785128 6.412022480249798,5C9.685660283824234,4.653913971292598 7.668728555458882,1 5,1M7,2C9.29450882547908,-0.29450882547907664 9.648691530541791,3 8,3M3,2C0.5508797046361686,2 0.5508797046361686,3 3,3M5,4C5.333333333333333,4 5.666666666666667,4 6,4M5,6C4.813501125510799,7.8719620725915185 4,6.31849232983757 4,8.2988824568935C4,9.031967447314278 3.850150975057384,9.780531078613148 4,10.498137428155834C5.621497258248053,18.263264553477143 13.614637585028767,5.501127378986811 6,5M10,8C10,5.323180269932388 13,2.981661775921532 13,0M7,8C4.057125897051823,8 3.3396480796930135,7.679296159386027 2,5M7,12C7,13.000000000000002 7,13.999999999999998 7,15M11,12C11.333333333333332,12.666666666666666 11.666666666666668,13.333333333333336 12,14" fill="none" stroke="#000000" /></g></svg>