<svg viewBox="0 0 16 16" xmlns="http://www.w3.org/2000/svg"><g stroke-width="0.3"><path d="M2,0C-2.14039198632753,4.14039198632753 6.147241732021847,4.405182453219264 7.550761373371959,3.4492386266280413C8.58464895663552,2.7450529326826456 9.961255423458965,0.5973722679910224 7.889447101926935,0C5.3387649635187655,-0.735447752627208 8.242073189865366,0.9561224117837037 6.011675021418319,0.9883249785816807C5.504726048148167,0.9956443255959694 3.990977526362844,0 3,0M3,1C1.6139680750955507,2.386031924904449 3,2.3387837978497172 3,1M8,1C9.03309113830401,1 14.411291026631817,0.3354129619517283 15,1.1052631578947363C15.812629643745208,2.1679326920230837 8.901236497256582,2 8,2M2,1C3.9999999999999982,1 6.000000000000002,1 8,1M1,2C3.3333333333333353,2 5.666666666666665,2 8,2M3,2C4.333333333333334,2 5.666666666666666,2 7,2M3,2C4.666666666666668,2 6.333333333333332,2 8,2M3,2C5,2 7,2 9,2" fill="none" stroke="#000000" /></g></svg>