<svg viewBox="0 0 16 16" xmlns="http://www.w3.org/2000/svg"><g stroke-width="0.3"><path d="M8,1C5.063772233840571,1 1.7575042414178066,3.8215186897678963 6.242906509955252,5C8.226816440229065,5.521246620489608 8.964492243296775,1 7,1M4,1C4,-0.34689186031753705 5,-0.34689186031753705 5,1M8,1C8,-0.7039779516505578 9.699202612277832,0.30079738772216835 8,2M5,4C5,5.697258863465985 3.6756656486451824,6.529578726086642 4,8.530056200624498C4.27098491612974,10.201477122869107 6.851928454417995,10.65446181442986 7.749612667743119,9.25038733225688C9.020018595984684,7.263336073732385 7,5.713631921574336 7,4M8,5C9.980206403775913,5 10,3.6371350440273176 10,2M5,5C3.9999999999999996,3.9999999999999996 3,3 2,2M5,8C3.3628649559726815,8 2,8.019793596224089 2,10M8,9C9.218171496678957,9 10,8.623149549736475 10,10M9,7C10.411434884371056,5.588565115628944 11.24204895547074,6.54530797383435 12.86016556581619,6C13.710400979575542,5.713469259387715 16.190430564212555,2.9230807694069414 14.839006605102856,2C13.091147586949813,0.8061370109536388 12.28276877626667,3.851020255923828 13.435372523086432,4C14.325292764689797,4.115026599738276 14.12640016775244,3 13,3M4,3C0.36031980284639387,3 3,-1.5810586171482424 3,1" fill="none" stroke="#000000" /></g></svg>