<svg viewBox="0 0 16 16" xmlns="http://www.w3.org/2000/svg"><g stroke-width="0.3"><path d="M6,0C3.2350587789431127,0.19568120419204674 -1.3633807737201835,4.184699743264629 0.42312661633379894,7.423126616333799C1.136541529679762,8.716343784026607 2.8358229142575464,9.266853775887338 3.5562036447994676,10.556203644799467C4.149515910115132,11.618124180809964 4.100448354327293,15.66324775245875 6.604423651594187,15C9.04295030749807,14.354088147113773 7.592210032741053,11.04631022667605 8.591473699517556,9.408526300482444C11.112181148091635,5.277110059533013 11.47015325243109,1.2842764276264558 5,1M3,4C3,7.908125386452352 6.908125386452353,4 3,4M7,4C2.891078381738099,8.1089216182619 11.31550787746958,4 7,4M5,11C5,11.666666666666666 5,12.333333333333334 5,13M6,11C6,11.666666666666666 6,12.333333333333334 6,13" fill="none" stroke="#000000" /></g></svg>