<svg viewBox="0 0 16 16" xmlns="http://www.w3.org/2000/svg"><g stroke-width="0.3"><path d="M6,3C2.655368440180677,3 3.882755164494848,6.361647934102735 6.555597325584424,6C9.770653804083095,5.564987955368573 7.013062650333805,3 5,3M6,3C6,0.5508797046361682 7,0.5508797046361682 7,3M4,3C4,-0.13933668607827654 0.34811960318232105,1.348119603182321 3,4M6,6C5.375060681933338,6.624939318066662 4.248919983969707,7.411743964556413 4,8.313598391560914C2.291959592182085,14.50194767042243 10.948972528372872,13.486527924938132 8.962330065655888,8.962330065655888C8.521804361738313,7.959117115149947 6.78395156752505,6.78395156752505 6,6M9,9C9,7.708412769400674 9.52142541709745,4.751346765662533 10.913892685825207,4.086107314174793C11.65599367584421,3.731574847497998 14.724180423004864,5.410255899455258 13.780443532881378,6C13.218798815282913,6.3509735205566376 11.471905335269676,5.536783633979967 11,6.072882963728957C10.038463755934702,7.1652184332531395 10.20646164815774,9 8,9M3,8C-1.597066606674515,3.402933393325485 -2.535698778939782,10 2,10M4,12C4,14.449120295363834 5,14.449120295363826 5,12M7,12C8.324184184566619,13.32418418456661 8,12.510367604152961 8,11M8,8C8,5.741941751545769 16.014854533818777,5.240772732658081 11.075981621783997,7C10.145984286513734,7.331265189427342 10.166596298298138,8 9,8" fill="none" stroke="#000000" /></g></svg>