<svg viewBox="0 0 16 16" xmlns="http://www.w3.org/2000/svg"><g stroke-width="0.3"><path d="M 2 2 C -0.455521048666498 3.227760524333249 -0.9027346441664559 3 2 3" stroke="black" fill="none" /><path d="M 2 2 C 3.112648661517704 -0.4809081176822123 3.996247530587895 -0.07521208349559216 4.626370870677802 0.6263708706778021 C 5.078506811323304 1.1297816297218604 4.845485949591485 1.9628589208471223 5 2.6216264893954397 C 5.534581080531387 4.90080225161587 5.491258362357959 5.005419019497369 7.50744866978343 5 C 9.14328958413397 4.995603265338191 9.99757735558777 4.380493627564559 10.985191266185758 3.0148087338142417 C 11.404947676239788 2.434364309010065 11.236503350177102 1.1266666960304605 11.952151357026027 1.0956972859479466 C 12.576737935540649 1.0686685264224036 11.470149005281117 2.692211131222143 12.030423306779369 2.969576693220632 C 12.627661744923765 3.265241467778451 13.179695416320044 1.7081953976286774 13.778829362067068 2 C 14.734942717839518 2.4656692874499453 12.802262388300404 7.243783577230764 9.863739839530044 8 C 6.164573069119683 8.951965015043742 3.0373465910033426 7.091685744849726 2 3" stroke="black" fill="none" /><path d="M 7 7 C 7 6.093861115613557 11.64786518897807 5.35213481102193 10 7 C 9.292893218813452 7.707106781186548 8 7 7 7" stroke="black" fill="none" /><path d="M 7 8 C 7 8.666666666666666 7 9.333333333333334 7 10" stroke="black" fill="none" /><path d="M 7 10 C 6.666666666666667 10.333333333333334 6.333333333333333 10.666666666666666 6 11" stroke="black" fill="none" /><path d="M 7 10 C 7.333333333333333 10.333333333333334 7.666666666666667 10.666666666666666 8 11" stroke="black" fill="none" /><path d="M 7 10 C 7.333333333333333 10.333333333333334 7.666666666666667 10.666666666666666 8 11" stroke="black" fill="none" /><path d="M 11 8 C 11 8.666666666666666 11 9.333333333333334 11 10" stroke="black" fill="none" /><path d="M 11 10 C 10.666666666666666 10 10.333333333333334 10 10 10" stroke="black" fill="none" /><path d="M 11 10 C 11 10.333333333333334 11 10.666666666666666 11 11" stroke="black" fill="none" /><path d="M 11 10 C 11.333333333333334 10.333333333333334 11.666666666666666 10.666666666666666 12 11" stroke="black" fill="none" /></g></svg>