<svg viewBox="0 0 16 16" xmlns="http://www.w3.org/2000/svg"><g stroke-width="0.3"><path d="M2,3C0.14519354360730308,3.9274032281963485 -0.3116124025522842,4 2,4M2,2C5.736939029701599,-1.7369390297016012 7,0.7403282074312747 7,5M2,4C3.190526687799132,6.381053375598264 4.220563198846019,8 7,8M7,5C8.04242641423794,5 10.004375069118367,4.621117708937986 10.961922507297002,5C17.613553319088073,7.631916728912947 10.515163460595954,12.51516346059596 6,8M9,8C10.435565359191987,8 10.841143144944864,7.315344244177328 11.916537555914374,7.083462444085627C13.05369776016596,6.838262401696732 10.163295487363818,9 9,9M8,10C8,10.666666666666666 8,11.333333333333334 8,12C7.666666666666666,12 7.333333333333335,12 7,12M8,12C8,12.333333333333334 8,12.666666666666666 8,13M8,12C8,12.333333333333334 8,12.666666666666666 8,13M11,10C11,10.666666666666666 11,11.333333333333334 11,12C10.666666666666664,12.333333333333336 10.333333333333334,12.666666666666666 10,13M11,12C11,12.333333333333334 11,12.666666666666666 11,13M11,12C11.333333333333336,12.333333333333336 11.666666666666664,12.666666666666664 12,13" fill="none" stroke="#000000" /></g></svg>