<svg viewBox="0 0 16 16" xmlns="http://www.w3.org/2000/svg"><g stroke-width="0.3"><path d="M3,10C-4.487301084004581,6.270645317173124 4.436829060411851,-3.5249001044328194 10.028791555184457,1.0287915551844558C12.193282251459719,2.7913969446450753 13.273263319746832,7.613778923913919 10.582780618325673,9.417219381674327C9.962774067313706,9.832812054907592 8.95028026596077,9.473982918738127 8.420722503706578,10C7.237002984531751,11.175805041283054 8.707562564086354,13.193259096877775 8,14.38618499752895C7.599425534415549,15.06153962959916 4.389200386938276,15.264107338644619 4,14.80690750123552C2.9613722078088873,13.586815040757934 4,11.60230250041184 4,10M5,10C5,10.999999999999998 5,12.000000000000002 5,13M7,10C7,10.999999999999998 7,12.000000000000002 7,13M4,3C0.3641844654174258,6.635815534582575 7.635815534582575,6.635815534582575 4,3M8,4C6.744139811965903,4 6.587223649375637,5.9479201731162705 7.368421052631579,6C9.312465320565082,6.129602951195566 9.752533416264237,4 8,4" fill="none" stroke="#000000" /></g></svg>