<svg viewBox="0 0 16 16" xmlns="http://www.w3.org/2000/svg"><g stroke-width="0.3"><path d="M 2 2 C 0.03622301819987084 3.9637769818001294 -0.30453622551948545 4 2 4" stroke="black" fill="none" /><path d="M 2 2 C 3.254184903699963 -0.8629219793454004 4.91160072847586 -0.5013934815859729 5.631718355662072 1.6317183556620718 C 6.416635028006881 3.956776070988772 5.602033952593905 6.3296320895998255 7.372555769981569 7 C 10.753191427346037 8.280000980047527 14.01717409891299 6.6802455937388 14.967656664749208 8.967656664749208 C 15.670568899194834 10.659270256425168 12.881381399143837 12.601543515270155 9.098582925561796 11.699527641853932 C 5.535740195793795 10.84996065614741 3.7859626399931345 8.571925279986269 2 5" stroke="black" fill="none" /><path d="M 6 8 C 10.522783184965183 8 10.522783184965183 10 6 10" stroke="black" fill="none" /><path d="M 6 12 C 6 12.333333333333334 6 12.666666666666666 6 13" stroke="black" fill="none" /><path d="M 7 12 C 7 12.333333333333334 7 12.666666666666666 7 13" stroke="black" fill="none" /><path d="M 9 12 C 9 12.666666666666666 9 13.333333333333334 9 14" stroke="black" fill="none" /><path d="M 9 13 C 9.333333333333334 13.333333333333334 9.666666666666666 13.666666666666666 10 14" stroke="black" fill="none" /><path d="M 9 13 C 9 13.333333333333334 9 13.666666666666666 9 14" stroke="black" fill="none" /><path d="M 9 13 C 9 13.333333333333334 9 13.666666666666666 9 14" stroke="black" fill="none" /><path d="M 5 13 C 4.666666666666667 13.333333333333334 4.333333333333333 13.666666666666666 4 14" stroke="black" fill="none" /><path d="M 5 13 C 5 13.333333333333334 5 13.666666666666666 5 14" stroke="black" fill="none" /><path d="M 5 13 C 5 13.333333333333334 5 13.666666666666666 5 14" stroke="black" fill="none" /></g></svg>