<svg viewBox="0 0 16 16" xmlns="http://www.w3.org/2000/svg"><g stroke-width="0.3"><path d="M6,1C3.058522330884046,1 1.2176838276207755,5.469826953785973 4.535345940802832,6C8.637404626959952,6.655522134320882 9.328558576865728,1 6,1M7,1C7,-0.6486915305417953 10.294508825479081,-0.2945088254790704 8,2M4,1C1.7054911745209211,-1.2945088254790766 1.3513084694582116,2 3,2M5,5C6.218171496678959,5 7,5.376850450263527 7,4M6,6C4.0866432854726416,7.9133567145273584 3.715775928348118,13.35595029502806 7.341330598644136,10.658669401355864C9.009768725787518,9.41741207885888 8.16358525617132,6 6,6M8,7C10.2754557196101,4.724544280389899 12.45519372590237,7 15,7M5,8C3.5593684413210713,8 3.0334704806802195,7.966529519319788 2,9M8,10C9.9823368077849,10 11.341380169134471,9 13,9C14.143667688080345,9 19.072848210388297,7.007487267911727 16.989420519643335,5C16.139792771841645,4.181340972977783 13.545197093605047,6 16,6C13.854088815525976,6 16,8.145911184474024 16,6" fill="none" stroke="#000000" /></g></svg>