<svg viewBox="0 0 16 16" xmlns="http://www.w3.org/2000/svg"><g stroke-width="0.3"><path d="M6,0C3.2794275718302046,0 -0.3772896633192784,4.567921687552961 3.7097516512757145,5C7.954865101611739,5.448789555715361 9.388190908715908,0 5,0M3,2C1.5586530012501463,2.720673499374927 -1.4955854516677127,4 2,4M6,5C7.279727845773043,5 14.68921922678016,7.3721382442664 11.985333639656893,10C9.360438560090792,12.551092185725164 4.843037334596615,6.686074669193229 4,5M6,5C6.4452176108628825,5.222608805431442 9.459577804369156,7.576609942609823 8.879494643953947,8C7.482880873335953,9.019357955625914 6,7.1651828093554695 6,6M6,9C6,10 6,11 6,12M9,10C9,10.666666666666666 9,11.333333333333334 9,12M7,12C6.666666666666667,12 6.333333333333334,12 6,12M8,12C7.666666666666667,12.333333333333332 7.333333333333334,12.666666666666666 7,13M8,12C8,12.333333333333334 8,12.666666666666666 8,13M10,12C9.666666666666666,12.333333333333334 9.333333333333334,12.666666666666666 9,13M10,12C10,12.333333333333334 10,12.666666666666666 10,13M10,12C10.333333333333334,12.333333333333334 10.666666666666664,12.666666666666664 11,13" fill="none" stroke="#000000" /></g></svg>