<svg viewBox="0 0 16 16" xmlns="http://www.w3.org/2000/svg"><g stroke-width="0.3"><path d="M8,2C6.288595003550515,2 3.4283408973424114,4.913864884024377 5.685824697130096,5C6.682459379622843,5.038026959028417 8.420100578142465,5.3177960423315564 9.273655711605794,4.726344288394205C10.919391727652359,3.5859686816549967 9.485032480590904,2 8,2M5,3C4.27968422066054,2.279684220660536 4.033470480680215,2 3,2C1.6127962441446162,2 2.48194181315579,1.106295358223421 1.631578947368421,1C-1.6631034760682748,0.5881646970704135 2,5.440580776829581 2,2M10,3C10.33333333333333,2.6666666666666665 10.666666666666668,2.3333333333333344 11,2C11,1.1405727326312816 12.023639026216088,0.3072029538725912 12.947368421052632,1C12.955490310034467,1.0060914167363768 12,4.045694628736465 12,2M13,1C14.346891860317541,1 14.346891860317536,2 13,2C15.589353295882733,2 12,4.465095610427591 12,2M7,4C7.333333333333334,4 7.666666666666666,4 8,4C8.333333333333332,4 8.666666666666668,4 9,4M8,4C8.333333333333332,4 8.666666666666668,4 9,4" fill="none" stroke="#000000" /></g></svg>