<svg viewBox="0 0 16 16" xmlns="http://www.w3.org/2000/svg"><g stroke-width="0.3"><path d="M8,1C5.302387911303082,1 3.1391853137373356,5.246727100497688 6.351628988702354,6C9.592285242254862,6.7598883527289795 11.797584190486084,1 8,1M5,2C3.9665295193197823,0.9665295193197856 3.4406315586789273,1 2,1M4,3C2.2895902995416737,3 1.239574147857204,2.760425852142796 0,4M4,4C2.6496412342704168,4 2,4.649641234270417 2,6M10,2C11.239574147857205,0.760425852142796 12.289590299541672,1 14,1M11,3C12.000000000000002,3 13,3 14,3M10,4C11.314988868804171,4 11.685011131195827,5 13,5M6,5C6,6.324184184566617 6.244816197923523,5.755183802076477 7,5M9,4C9,4.753059764390035 9,6.874820938726414 9,5C9.33333333333333,5 9.66666666666667,5 10,5C10.333333333333336,5 10.666666666666664,5 11,5M11,4C11.333333333333334,4 11.666666666666666,4 12,4M12,3C12.333333333333334,3 12.666666666666666,3 13,3C13.333333333333332,3 13.66666666666667,3 14,3" fill="none" stroke="#000000" /></g></svg>