<svg viewBox="0 0 16 16" xmlns="http://www.w3.org/2000/svg"><g stroke-width="0.3"><path d="M7,5C2.8687994014066227,5 1.424122828495178,9.000228945649608 6.109349501130787,10C11.609363045745717,11.173636778889902 12.52532660342532,5 7,5M5,5C4.666666666666667,4.666666666666667 4.333333333333334,4.333333333333334 4,4C4,1.0515295106392322 5.80033330265517,2.19966669734483 4,4M8,5C8,4.666666666666667 8,4.333333333333333 8,4C8,-0.11975626759903513 10.169522746242354,4 8,4M11,7C11.720315779339465,6.279684220660542 12,6.033470480680212 12,5C12,4.474278436181404 11.658680219094016,0.14114194391186818 12.878867621570263,1C13.294608149583524,1.2926289035617815 12.691020327696181,2.802260157527564 13,2.9698108879575194C13.129710846294238,3.040149324396526 14.01684305226071,1.8128206418957675 14.64654059197168,2C16.09543602811698,2.430688228228285 13.361308315288186,4.638691684711814 13,5M3,7C1.0310624310872878,7 1,6.968937568912713 1,5C-1.4455243411087921,5 0.8188917728445944,1.9221849929847008 1,2.014319891507481C1.4613189041195622,2.2490059192229674 2.759515361740257,4 1,4C1.9844687844563558,4 2,4.0155312155436444 2,5" fill="none" stroke="#000000" /></g></svg>