<svg viewBox="0 0 16 16" xmlns="http://www.w3.org/2000/svg"><g stroke-width="0.3"><path d="M0,5C2.256302802736095,2.7436971972639044 4.128448546698568,0.6466156339044891 7.48042008211171,2.740210041055855C8.652099083737701,3.472024311811149 8.802515474454383,5.385108304251824 10.039565195456865,6C13.672087824009905,7.805592742953391 13.092609223933895,2.514684929054324 14,2.11551143687826C14.962137994293744,1.692253901902471 15.560612028550882,7.088648362113327 14.19133465864896,7.8086653413510385C13.62270477363694,8.10767208834779 12.967961155056823,7.328881636836161 12.32551764436269,7.325517644362691C8.085826499075003,7.303317577173631 3.3228677898018075,10.00573004761577 1,5M4,3C4,5.145911184474024 6.145911184474024,3 4,3M5,2C5,0.9665295193197849 4.720315779339464,0.7203157793394622 4,0M5,2C5,0.9665295193197849 5.2796842206605366,0.7203157793394619 6,0M5,1C5.333333333333332,0.6666666666666661 5.666666666666668,0.3333333333333344 6,0M5,2C5,0.9665295193197849 5.2796842206605366,0.7203157793394619 6,0" fill="none" stroke="#000000" /></g></svg>