<svg viewBox="0 0 16 16" xmlns="http://www.w3.org/2000/svg"><g stroke-width="0.3"><path d="M 2 2 C 0.23351403928501058 2.883242980357495 -1.0648492255996738 3 3 3" stroke="black" fill="none" /><path d="M 2 2 C 2 -0.3564767220785394 5.516274238671162 -0.967451522657675 7 2 C 7.366655962489591 2.733311924979182 6.0043936596127345 4.497803170193633 5 5 C 4.171321651816485 5.414339174091758 2.9421622944102648 3.9421622944102648 2 3" stroke="black" fill="none" /><path d="M 5 3 C 8.828157701538231 3 11.765611149442588 5.7031665516722345 11 8 C 10.665735634966357 9.002793095100929 8.063880882953205 9.531940441476603 7 9 C 5.146831099253673 8.073415549626837 5 6.463198666397249 5 4" stroke="black" fill="none" /><path d="M 7 8 C 7 9 7 10 7 11" stroke="black" fill="none" /><path d="M 7 11 C 6.333333333333333 11.333333333333334 5.666666666666667 11.666666666666666 5 12" stroke="black" fill="none" /><path d="M 7 11 C 7 11.333333333333334 7 11.666666666666666 7 12" stroke="black" fill="none" /><path d="M 7 11 C 7.333333333333333 11 7.666666666666667 11 8 11" stroke="black" fill="none" /><path d="M 9 9 C 9 9.666666666666666 9 10.333333333333334 9 11" stroke="black" fill="none" /><path d="M 9 11 C 8.666666666666666 11.333333333333334 8.333333333333334 11.666666666666666 8 12" stroke="black" fill="none" /><path d="M 9 11 C 9.333333333333334 11.333333333333334 9.666666666666666 11.666666666666666 10 12" stroke="black" fill="none" /><path d="M 9 11 C 9 11.333333333333334 9 11.666666666666666 9 12" stroke="black" fill="none" /><path d="M 6 4 C 6 6.598666000375626 10.56604097371159 8.43395902628841 12 7 C 12.619712400839582 6.380287599160418 8.77895675104932 4.77895675104932 8 4" stroke="black" fill="none" /></g></svg>