<svg viewBox="0 0 16 16" xmlns="http://www.w3.org/2000/svg"><g stroke-width="0.3"><path d="M6,1C2.7978926814898286,1 3.809888286298561,5.49826233632242 6.288699019696765,6C9.326456918698051,6.614874516447469 9.695309132632667,1 6,1M8,2C8,-1.0983338521545254 12.098333852154527,3 9,3M4,1C1.670623803534025,1 1.317386053689472,3 4,3M5,4C5.666666666666667,4 6.333333333333334,4 7,4M5,5C-0.8599177825932278,10.859917782593229 12.871284778777841,15.541040676197609 9.73087293351916,7.4617458670383225C9.345381801070413,6.469998077629017 8.738997868187877,5.738997868187877 8,5M10,6C11.943502744837716,6 14.422328816416746,1.58054185270084 12.219556467118622,0.21955646711862264C7.978163320185577,-2.400993082326986 12,6.163281740226944 12,2M4,8C1.0798019200472972,8 -1.7821644685030336,3 1,3M7,10C5.559368441321071,11.440631558678922 5,11.933059038639572 5,14M10,10C11.980206403775915,10 12,11.362864955972682 12,13" fill="none" stroke="#000000" /></g></svg>