<svg viewBox="0 0 16 16" xmlns="http://www.w3.org/2000/svg"><g stroke-width="0.3"><path d="M8,0C4.432637879593187,0.09051135815609124 2.9256905631139825,5.165985951408549 7.059189557854771,5C11.549053615583116,4.819703752616051 11.83515026095037,0 7,0M4,1C3.71782233169831,1 -1.9655520818944452,1.9107879716030063 0,2.9766499571633704C1.3073936867626579,3.6856117006440328 2.5127525404607356,1 4,1M4,2C1.5839473632926766,2 0.9675533599777498,5.597795382734681 1.8965171503565337,5C2.4879220981681622,4.61942634278126 2.909330264055451,3.5453348679722745 4,3C2.001830041202839,4.9981699587971615 2.7336688541880068,6.266331145811993 5,4M12,1C12.847208026050376,1 16.12556269476006,1.4378630888600652 15.959242203327104,2.9592422033271046C15.937445803923316,3.158619841871857 12.386248483936585,2 12,2M11,3C11.706973529488435,3 14.659079102005396,3.7162169892854253 12.947368421052632,5C12.27372268437634,5.505234302507219 11.891434264349202,4 11,4C11.898284789796445,4 12.73552706343081,5.702192733242362 11.842105263157896,6C10.788871305373661,6.351077985928077 11.239436458659835,5 10,5" fill="none" stroke="#000000" /></g></svg>