<svg viewBox="0 0 16 16" xmlns="http://www.w3.org/2000/svg"><g stroke-width="0.3"><path d="M 9 1 C 6.53680133360275 1 4.926584450373161 1.1468310992536772 4 3 C 3.53537563469846 3.929248730603079 4.080432492542637 5.693477497514213 5 6 C 9.345811016383303 7.448603672127768 12.345198376972526 4.345198376972525 9 1" stroke="black" fill="none" /><path d="M 10 2 C 12.368359678411425 -0.3683596784114247 12.631640321588579 -0.3683596784114207 15 2" stroke="black" fill="none" /><path d="M 11 4 C 12.567538207833323 2.432461792166678 13.136490904974659 3.136490904974659 15 5" stroke="black" fill="none" /><path d="M 11 5 C 13.11983765423165 5 14 5.309929433687479 14 7" stroke="black" fill="none" /><path d="M 6 2 C 3.349037526965629 0.6745187634828145 3.2560092327304955 0.7439907672695045 1 3" stroke="black" fill="none" /><path d="M 5 4 C 3.7271719965051817 2.7271719965051817 1 3.011216394759521 1 5" stroke="black" fill="none" /><path d="M 5 5 C 2.880162345768349 5 2 5.309929433687477 2 7" stroke="black" fill="none" /><path d="M 5 6 C 3.3794081754508123 6 3.4689465939411073 9.234473296970554 5 10 C 6.745054075848271 10.872527037924135 5.014207916559232 6.014207916559232 5 6" stroke="black" fill="none" /><path d="M 9 6 C 9 6.374350648863463 9.291161615782695 8.708838384217305 9 9 C 8.528595479208969 9.471404520791031 7 9 7 9 C 7 9 8 8.666666666666666 8 9 C 8 10.235702260395513 6.723857625084608 10.723857625084607 7 11 C 7.786579610085969 11.786579610085969 10 9.685987231757041 10 7" stroke="black" fill="none" /></g></svg>