<svg viewBox="0 0 16 16" xmlns="http://www.w3.org/2000/svg"><g stroke-width="0.3"><path d="M3,11C3,13.70344647950204 5.260786678711176,17.68082293219652 8.699634129366551,15C9.243653842382852,14.575898453435869 8.852514448501056,10.764442984600501 9,10.450548805950174C10.08739715763919,8.136236426230063 15.080541069101141,6.59906135823834 12.74350705176733,2.7435070517673292C7.2768026180477,-6.275264461741761 -4.628866620283267,7.873009293274626 4,9M5,3C3.5074655578068623,4.49253444219314 4.5976363507031035,7.58678356830654 6,5.963879394683408C6.823604688896265,5.010751803494435 5.954653583931943,3 5,3M9,3C9,9.560897141486205 13.048639675882882,3 9,3M6,11C6,11.666666666666666 6,12.333333333333334 6,13M7,11C7,11.666666666666666 7,12.333333333333334 7,13M8,11C8,11.666666666666666 8,12.333333333333334 8,13" fill="none" stroke="#000000" /></g></svg>