<svg viewBox="0 0 16 16" xmlns="http://www.w3.org/2000/svg"><g stroke-width="0.3"><path d="M4,5C5.057965500241272,4.471017249879363 5.7396651945030115,4.029928391646194 6.942193633735783,4C7.648255355884808,3.982427615798971 8.355343752935015,3.9711517719559617 9.061034707892832,4C16.23120998669995,4.293112516329642 4,12.7253621022973 4,5C1.816399501787806,5 1.6622535417340039,3.337746458265996 3,2M2,2C2,-1.1143049863348553 4.922931410385122,0.07706858961487884 3,2M11,5C12.376850450263529,5 12,4.218171496678958 12,3M12,2C10.993926863318475,2 10.290853348402909,0.30933772850265984 11.288699019696766,0C12.353229265890892,-0.3300103189835777 11.69698705506472,0.5457104119719614 12,0.9330485295451504C13.378240719120758,2.694838494726268 14.68372107792189,0.31627892207810504 12,3M5,6C3.559368441321076,6 3.0334704806802155,5.966529519319785 2,7M5,7C3.559368441321076,7 3.033470480680215,6.966529519319785 2,8M5,7C4.0155312155436444,7 4,7.015531215543644 4,8M13,6C14.218171496678957,6 15,5.623149549736473 15,7M12,7C13.033470480680215,7 13.279684220660537,7.2796842206605366 14,8M11,8C12.033470480680215,8 12.279684220660538,8.279684220660538 13,9" fill="none" stroke="#000000" /></g></svg>