<svg viewBox="0 0 16 16" xmlns="http://www.w3.org/2000/svg"><g stroke-width="0.3"><path d="M 3 2 C 2.3333333333333335 2 1.6324555320336758 1.789181489322108 1 2 C 0.552786404500042 2.149071198499986 -0.42163702135578396 2.789181489322108 0 3 C 0.8944271909999159 3.447213595499958 2 3 3 3" stroke="black" fill="none" /><path d="M 3 2 C 3 -1.174754872321552 7 -0.4991328060130469 7 3" stroke="black" fill="none" /><path d="M 2 3 C 4.763114254194523 5.763114254194523 1.9512045285553172 2.8536135856659524 3 6 C 3.5558783690233584 7.667635107070076 6.595602770313064 8 9 8" stroke="black" fill="none" /><path d="M 8 3 C 14.473103108461512 3 14.205986771593297 9 9 9" stroke="black" fill="none" /><path d="M 8 5 C 9.077567485236987 4.461216257381507 14.289096484406988 1.2890964844069877 15 2 C 15.497918434805488 2.4979184348054875 14.92747020973036 4.53626489513482 14 5 C 12.57453559925 5.712732200375 11.149071198499982 5.425464400750009 10 6" stroke="black" fill="none" /><path d="M 7 8 C 7 9.708643867392432 7.130162003179821 9.869837996820179 6 11" stroke="black" fill="none" /><path d="M 10 9 C 10 9.666666666666666 10 10.333333333333334 10 11" stroke="black" fill="none" /></g></svg>