<svg viewBox="0 0 16 16" xmlns="http://www.w3.org/2000/svg"><g stroke-width="0.3"><path d="M2,3C-0.3116124025522842,3 0.1451935436073042,3.072596771803653 2,4M2,3C2,1.0210806899905365 5.660175602986222,-1.7166941154351032 6.926663248305169,0.9266632483051686C8.324929340042056,3.8450627950533813 5.347317563963115,6.347317563963113 3,4C3,7.905822232219204 10.452165763036978,9.781496233697935 12.949494124638745,7C14.565693550265385,5.199895262310673 10.430001628867,4 9.549269789150383,4C8.366179859433586,4 7.183089929716797,4 6,4M7,5C8.695765473347583,5 9.974735274257549,2.5236882593717467 11.77831729254487,3C15.381015051109237,3.951443972572325 10.687864805157808,7 9,7M8,9C8,10 8,11 8,12M10,9C10,10 10,11 10,12M8,12C7.666666666666667,12.333333333333332 7.333333333333334,12.666666666666666 7,13M8,12C8,12.333333333333334 8,12.666666666666666 8,13M8,12C8,12.333333333333334 8,12.666666666666666 8,13M11,12C10.666666666666664,12.333333333333336 10.333333333333334,12.666666666666666 10,13M11,12C11.333333333333336,12.333333333333336 11.666666666666664,12.666666666666664 12,13M11,12C11,12.333333333333334 11,12.666666666666666 11,13" fill="none" stroke="#000000" /></g></svg>