<svg viewBox="0 0 16 16" xmlns="http://www.w3.org/2000/svg"><g stroke-width="0.3"><path d="M0,1C0,-2.0983338521545267 4.098333852154525,2 1,2M0,1C0,1.333333333333334 0,1.666666666666666 0,2C0,2.3333333333333335 0,2.666666666666667 0,3M1,2C1,2.666666666666668 1,3.333333333333332 1,4M1,2C1,3.000000000000001 1,3.9999999999999996 1,5M2,2C2,3.000000000000001 2,3.9999999999999996 2,5M1,6C-0.5939958607949276,7.593995860794927 0.13552232293709898,12.49992788616902 1.2774777862443243,14.277477786244324C2.0239926755475333,15.43949111296602 4.635947570051606,15.34591080820684 5,13.825594289527114C5.142815962253342,13.229181661335968 4.148623951589427,10.493871339570847 4,9.62938786524512C3.796703391263354,8.44689637070599 2.792007674339054,7.792007674339054 2,7M2,8C2,13.12388167461139 3.8713617399505518,9 2,9M1,6C1,8.598485266353588 0.8264744518893514,10.652948903778704 2,13M2,6C2,8.77765399374495 2.4559758227070283,11.279879113535136 3,14M2,5C2,8.133358990627032 3,10.86664100937297 3,14" fill="none" stroke="#000000" /></g></svg>