<svg viewBox="0 0 32 32" xmlns="http://www.w3.org/2000/svg"><g stroke-width="0.3"><path d="M8,10C8.42217680682099,8.466939159074055 8.875147563462857,6.942027475063006 9.266530420462972,5.4008174772221675C9.61787581224501,4.017269320156048 8.803569040155676,1.1300243507878946 10.227686714362598,1.2276867143625976C11.04665815585678,1.283849690305611 12.923943186960045,9.972059158335874 13.161652144900998,10.161652144900998C17.783489675489434,13.847958241370058 21.959301063586963,6.76243520820201 23.276159480426752,4.447681039146496C23.99317418323723,3.187323242605505 24.61371330365102,0.389335832763289 25.928894330810838,1C27.353771827687854,1.6615983747300487 25.98823678602718,4.141474062544587 26,5.712413245756013C26.02981945561656,9.694705105644278 27.081332176632962,16.22615959768124 25.34763160851546,19.957105174453623C22.797738025781943,25.444508454288695 12.98194042807754,27.07167319763379 8.701013742262884,22.701013742262884C5.322282527625568,19.251460733250955 7.163738174549971,12.897325724684613 8,9M14,18C9.206782986173083,18 5.912191616512895,16.08780838348709 2,20M16,19C10.416991418190687,19 6.957864923170808,21.52106753841459 2,24M18,17C22.841781886611294,17 25.897864636043618,17.265243090695744 30,20M18,19C22.15757642616574,19.519697053270725 25.47942335566805,19.652948903778707 29,22" fill="none" stroke="#000000" /></g></svg>