<svg viewBox="0 0 32 32" xmlns="http://www.w3.org/2000/svg"><g stroke-width="0.3"><path d="M4,14C2.5402952047087455,15.459704795291255 0.07141010668130651,17.259083511444558 0,19.582159780089754C-0.09394465926423755,22.638318335862355 5.123668900651184,23.865204846714597 7.420159817160052,23C8.434686240750345,22.617776333230726 9.705190762900596,20.339754918583814 10.466760560728076,19.766619719635962C11.717556264104685,18.825307385109447 13.626819637161491,19.043526470950905 14.839439301780365,18.053520232739878C18.304432640271322,15.224632395477347 15.077732072070045,12.34917241435601 12.279831147438783,11.569957786859696C8.517324745247967,10.52210080278082 6.697531371409035,11.302468628590965 4,14M15,11C19.57655741503848,8.71172129248076 24.334050858781772,2.627410795498933 28.86362490899576,1.1363750910042396C29.929910635945216,0.7853773873681529 31.46345794492525,1.7683983972037711 30.84326736166205,3.1044884255586327C30.31062052052899,4.251981071009815 28.731046097876753,4.497893503247511 27.692193786987605,5.21986158072314C24.495815923325,7.441238726372471 21.732098525198985,9.755967158267005 18,11M8,16C6.66552262306474,17.33447737693526 6.833892252152666,20.455729238185793 9.195110883220345,18.804889116779655C10.33968391711105,18.004663732579658 10.562397520952231,16 9,16M6,19C9.735693281004485,16.7585840313973 13.375314631879512,14.416456912080326 17,12M7,20C9.618807246484078,17.90495420281274 12.208656960028385,15.860895359981084 15,14M8,21C9.913541127266026,19.086458872733964 11.747000259433719,17.501999827044195 14,16" fill="none" stroke="#000000" /></g></svg>