<svg viewBox="0 0 32 32" xmlns="http://www.w3.org/2000/svg"><g stroke-width="0.3"><path d="M4,3C-0.02473482889234191,5.683156552594893 -0.3470839071328182,7 5,7M4,3C4,0.7271245695006416 7.218521567481164,-0.4953050535960566 9.237896165877048,0.11894808293852376C12.518927154714074,1.116971717365363 14.506292063058135,7.493707936941865 12,10M5,7C5,14.822265369135646 9.17773463086436,19 17,19M12,8C15.40237647747259,11.40237647747259 17,13.065169116356413 17,18C17.926660663025466,17.536669668487267 23.625875346714814,16.079953117835323 22.886848461444746,19.113151538555254C22.52372955667596,20.6035055573752 19.07839013589055,20 18,20M11,19C13.078073316049437,23.156146632098874 15.577380065511942,24 20,24M12,22C12,24.109979223689024 11.510301855861904,25.95879257655241 11,28C9.365339749733263,28 8.459639259363783,28.270180370318098 7,29M12,28C11.333333333333336,28.666666666666664 10.666666666666666,29.333333333333336 10,30M12,29C12,29.333333333333336 12,29.666666666666664 12,30M18,23C18,24.999999999999996 18,27 18,29C17.333333333333336,29.333333333333343 16.666666666666664,29.666666666666657 16,30M18,29C18,29.333333333333336 18,29.666666666666664 18,30M18,28C18.33333333333334,28.666666666666657 18.666666666666657,29.33333333333334 19,30" fill="none" stroke="#000000" /></g></svg>