<svg viewBox="0 0 32 32" xmlns="http://www.w3.org/2000/svg"><g stroke-width="0.3"><path d="M28,0C27.518763727149718,0.48123627285028236 25.025315708092048,2.3687958238113778 25.012436654337705,2.987563345662294C24.949490076001098,6.011799367132542 35.42474986878818,2.4749166229293897 29.60329473471702,0.5344315782390068C29.068863156478013,0.35628771882600474 28.53443157823901,0.17814385941300265 28,0M26,3C23.666666666666668,5 21.333333333333332,6.999999999999998 19,9M29,3C26.20865696002838,4.860895359981086 23.618807246484078,6.904954202812728 21,9M19,7C16.246660149260116,6.046327904381468 12.92977198369297,4.664278306617685 10.772568730163368,7.682293809509898C8.460752778951298,10.916618794499445 11.334381432381042,10.486518957541465 7.479615217981875,12.380096195504532C3.816495018844031,14.179531139989567 -5.884379313891468,15.614651000808362 1.4221670275376295,21.42216702753763C4.188728019106524,23.621133070681594 10.486831206645803,23.76465683584251 13.029026952564246,20.970973047435756C14.332408449704268,19.538653854660968 13.183176983805868,16.683852267120418 14.617416171538538,15.382583828461462C17.398813547223313,12.859054523653445 21.18323632360896,16.914271981510822 19,11M10,13C9.408726085843677,13 6.979744040036267,13.932119039197376 8,14.990969848670852C9.346816151208197,16.38873416260776 11.875522106963217,13.875522106963217 10,12M8,15C12.386947633872678,12.075368244084885 16.613052366127324,8.924631755915108 21,6M10,16C13.18365460860518,12.81634539139482 16.58236707112604,9.929399653320543 20,7M9,17C12.777090761147925,14.481939492568042 16.36887226657502,11.723345800068723 20,9M9,16C11.301064156598283,14.274201882551294 13.60656988887073,12.59562007408618 16,11M9,17C11.875836971623897,14.12416302837609 14.824582169490654,11.540334264407466 18,9" fill="none" stroke="#000000" /></g></svg>