<svg viewBox="0 0 32 32" xmlns="http://www.w3.org/2000/svg"><g stroke-width="0.3"><path d="M 7 8 C 12.428229063027294 -0.14234359454093948 21.683936762604773 0.36787352520954464 26 9" stroke="black" fill="none" /><path d="M 7 8 C 7 10.310588288363125 9.386218612199716 10.346554653049928 12 11 C 17.64069825896741 12.410174564741853 22.098064299865953 12.901935700134047 26 9" stroke="black" fill="none" /><path d="M 26 8 C 26.666666666666668 8 27.353238333236444 7.838309583309111 28 8 C 32.82880678290673 9.207201695726683 33.29603946462966 12 27 12" stroke="black" fill="none" /><path d="M 27 12 C 27 17.77385970464532 24 16.40746040158548 24 13" stroke="black" fill="none" /><path d="M 24 13 C 22.21477053242466 14.785229467575341 21 15.122581151002027 21 14" stroke="black" fill="none" /><path d="M 7 12 C 3.5551490358978035 18.889701928204392 -0.8406157086740356 9 6 9" stroke="black" fill="none" /><path d="M 5 9 C 2.770423921227788 7.885211960613894 1.7421746828965459 7.226524048689637 1 5 C 0.5838239541920474 3.751471862576142 1.9790861000676843 2.4895430500338422 3 3 C 4.264911064067352 3.632455532033676 5 5 6 6" stroke="black" fill="none" /><path d="" stroke="black" fill="none" /><path d="M 6 6 C 6 7.747546895706424 5.95955988548012 6.95955988548012 7 8" stroke="black" fill="none" /><path d="M 10 3 C 10 6.619662791508418 14 7.23926983465758 14 3" stroke="black" fill="none" /><path d="M 18 3 C 16.53948789520505 5.9210242095899055 21 8.328945487886939 21 4" stroke="black" fill="none" /><path d="M 13 8 C 11.489882017271661 9.510117982728339 12.568692172550241 11.431307827449759 15 9" stroke="black" fill="none" /><path d="M 22 9 C 19.84048917360241 11.15951082639759 23 13.35079035586756 23 10" stroke="black" fill="none" /></g></svg>