<svg viewBox="0 0 32 32" xmlns="http://www.w3.org/2000/svg"><g stroke-width="0.3"><path d="M 1 2 C 1 7.71005732024262 -1.3960007593036694 14.415996962785322 0 20 C 0.48507125007266594 21.940285000290665 4.006908483510241 19.83390904029252 6 20 C 8.348880878058814 20.195740073171567 10.651119121941186 20.804259926828433 13 21 C 19.1025943474403 21.50854952895336 18.451638002114603 21.031981976739353 19 15 C 19.18107149208504 13.008213587064592 19 11 19 9 C 19 1.1722285909221721 19.414263396738704 -0.5295902426241931 12 0 C 8.989209104548964 0.2150564925322169 6 0.6666666666666667 3 1" stroke="black" fill="none" /><path d="M 2 1 C 3.4732836966613503 3.946567393322701 5.02277833939658 5.627847292424573 8 6 C 12.996566044904927 6.624570755613116 18 4.746757042267047 18 1" stroke="black" fill="none" /><path d="M 20 4 C 20 1.5408399052506554 28.05519046247516 3.08278569371274 30 6 C 34.19080299356433 12.2862044903465 23.27061517197423 22.27061517197423 18 17" stroke="black" fill="none" /><path d="M 20 5 C 26.182022205356834 -1.1820222053568337 32.05179045039142 10.368925729765145 26 14 C 23.975204674482203 15.21487719531068 21.698934486898633 15.698934486898633 20 14" stroke="black" fill="none" /></g></svg>