<svg viewBox="0 0 32 32" xmlns="http://www.w3.org/2000/svg"><g stroke-width="0.3"><path d="M 13 6 C 4.473527895001228 8.67719775865187 3.757279464689044 21.42514197101016 10.017211319979271 24 C 15.947258384582028 26.43916861230307 23.649396420371012 19.906663761528243 22 12.308902246785598 C 21.14460355918906 8.368613497778064 18.2452135789302 6.415071192976734 14 5" stroke="black" fill="none" /><path d="M 13 5 C 13 3.666666666666667 12.578362978644217 2.2649110640673515 13 1 C 13.26937401188059 0.19187796435822912 14.342905244132224 -0.3285473779338877 15 0 C 16.48541490305508 0.7427074515275407 16 2.09139659620801 16 4" stroke="black" fill="none" /><path d="M 21 8 C 21 5.861040654608473 26.853175212742237 3.8531752127422356 28 5 C 28.2307982274829 5.2307982274829 27.743155845881816 8.256844154118184 27 9 C 26.150163414401202 9.849836585598798 25 10.333333333333334 24 11" stroke="black" fill="none" /><path d="M 23 19 C 30.74187516124962 22.870937580624812 24.269873889234326 30.53974777846865 20 22" stroke="black" fill="none" /><path d="M 8 8 C 6.411270523380907 6.411270523380907 4.047346482166784 5.488163379458304 2 6 C 0.5649656255926379 6.3587585936018405 -0.37751398753149834 7.244972024937003 0 8 C 0.7453559924999299 9.49071198499986 2.613249509436927 10.075499672957951 4 11" stroke="black" fill="none" /><path d="M 5 19 C 3.928027336629314 20.071972663370687 1.4957873568089421 21.512637929573174 1 23 C 0.030922794827114908 25.907231615518654 5.638995614899638 27.722008770200723 8 23" stroke="black" fill="none" /></g></svg>