<svg viewBox="0 0 32 32" xmlns="http://www.w3.org/2000/svg"><g stroke-width="0.3"><path d="M4,13C-1.2609886426114514,14.518690687814699 0.324591139097993,16.991834617382494 1.4261842100876332,20.852368420175267C2.5599766353197735,24.82574488579416 0.3269306654607451,34.32907938699798 8.845649386908132,30.436233742061244C14.496731631644867,27.85382767549904 9.651379404446473,24.954788547992095 10,21.27993916583706C10.372964772185634,17.34847504663951 12.564512138746272,20.630832892806914 12,16.376754457831556C11.533574146762186,12.861839493946611 8.24098999718517,13.11011794285123 6,14C6,10.666666666666666 6,7.333333333333333 6,4M7,13C7,9.470180652484105 7.142262091251602,6.43095163499359 8,3M7,3C2.0712909553134082,3 14.46609780864565,-2.4660978086456558 9,3C9.33333333333333,3 9.66666666666667,3 10,3M10,2C10,2.3333333333333335 10,2.666666666666667 10,3C10,3.333333333333333 10,3.666666666666667 10,4" fill="none" stroke="#000000" /></g></svg>