<svg viewBox="0 0 32 32" xmlns="http://www.w3.org/2000/svg"><g stroke-width="0.3"><path d="M4,4C-0.010437498228415443,5.336812499409468 -0.5237384863913599,6 4,6M3,4C3,2.684567525689377 2.458783451637254,0.11955396605273738 3.71894512958029,-0.7189451295802902C6.597750975367401,-2.634474018012875 12,-0.5670160568232374 12,3C16.962240883755662,3 21.25017370632905,4.8752605594935865 24,9M5,7C7.6284747118635,17.589298843091022 22.041113648739227,16.438329526891152 27,9C28.597318330595364,9 33.077410452720635,9.736002455011578 34,7.876611160909788C35.573865049668,4.704636169350928 29.26365680951788,5.736343190482124 28,7M16,11C14.485894452498387,14.028211095003238 13.345479623329929,15 10,15M15,14C14.418134799986447,15.163730400027095 13.92349101160469,16.076508988395297 13,17" fill="none" stroke="#000000" /></g></svg>