<svg viewBox="0 0 32 32" xmlns="http://www.w3.org/2000/svg"><g stroke-width="0.3"><path d="M6,8C8.60769146463377,5.953882964259051 12.028166007049455,3.3952306696182566 15.681098096250839,4C22.646329927689468,5.153144511803302 26.83378454455124,15.766453752902105 22.491444542434984,21.262833186347525C16.045016023362145,29.422492981329043 6.131302546621216,24.7098963565392 4.193805248823394,15.581415746470181C3.2928131481065215,11.336409092490541 5.805970221408071,9.291044667887894 8,6M8,7C7.333337077123086,5.66667415424617 5.856848783043974,1.337739353063883 4.089171480151094,1.0891714801510943C1.3982692390070346,0.7107812359573167 4.713194519032968,9.139583557098902 5,10M20,7C21.02055423178945,5.97944576821055 23.724504638340598,0.8389820627854514 25.779763538901346,2C27.362621096386523,2.89415791645252 23.50759612438843,8.984807751223139 23,10M13,14C8.700071526171296,18.299928473828704 18.07313113215515,14 14,14C14,15.985737227476204 12.438662094093932,21.43866209409393 10,19M14,15C14.787226777903621,17.36168033371088 14.418067371140873,19 17,19M18,14C20.970089487449236,13.009970170850256 23.915712412726492,12.514047931212248 27,12M19,16C22,16 25,16 28,16M19,18C21.333333333333336,18.666666666666664 23.666666666666664,19.333333333333336 26,20M7,15C4.333333333333332,15 1.666666666666667,15 -1,15M6,17C3.9999999999999987,17.666666666666664 2.0000000000000036,18.333333333333336 0,19M8,19C6.999999999999997,19.666666666666664 6.000000000000001,20.333333333333336 5,21" fill="none" stroke="#000000" /></g></svg>