<svg viewBox="0 0 32 32" xmlns="http://www.w3.org/2000/svg"><g stroke-width="0.3"><path d="M19,8C15.162070298893394,6.172094459591008 10.784003064119494,7.452507828766274 8.07128806900037,10.92871193099963C6.1070402736098846,13.44579398953685 6.6367375451727675,18.242911648132843 9.75534404137273,19.75534404137273C14.637945766135985,22.1232622191932 26.573073682025523,15.326527805118154 22.24845218484784,9.49690436969568C21.657165065233325,8.699844730645705 18.79582403183885,7.397912015919425 18,7M10,9C6.535392753973965,9 5.233595778662949,6.071893931917659 6.085879388580905,2.8282412228381917C6.327285260091558,1.9094897649888514 7.3775163937964825,0.12509766226915317 6.4358521165750835,0C4.726049164668371,-0.22714289731321932 5.091953456184071,2.08452135607166 4.213745713934284,2.5725085721314307C3.872561996416331,2.7620916109349696 1.8578173966579938,1.1916709893904438 1.786590478822188,1.213409521177812C-0.27782776437654677,1.8434721852067562 1.6975231688124017,3.6499351737573718 2.0576739092346408,4.057673909234641C4.397540884876093,6.706715809619293 5.769893718132143,10.384946859066073 9,12M22,8C23.49698181244872,6.5786548969615835 25.557259324152493,6.0293472466697136 26,3.726774694428692C26.11102540878132,3.1493620625943883 25.320424730187035,-0.2921665348947979 26.892906422779294,0C29.03985807028688,0.3989028466238665 27.322255328438835,1.5071812121692016 28,2.5584802718781905C28.2988906709166,3.0221113330661815 30.778980451102598,0.780144744498966 31,3.3497342643399888C31.181900238869307,5.464519810627195 24.608251753515525,9.195874123242238 23,10M8,13C5.672539199945813,14.16373040002709 3.8469820232093825,15.153017976790617 2,17M10,16C7.67334912383804,16 5.546657223968361,18.45334277603165 4,20M10,19C8.345967172358941,19.827016413820523 7.827016413820531,20.34596717235895 7,22M26,12C28.308017193318115,12 29.91786951286402,11.95893475643201 32,13M24,14C25.66666666666667,14 27.33333333333333,14 29,14M23,16C24.710409700458328,16 25.760425852142795,15.760425852142795 27,17" fill="none" stroke="#000000" /></g></svg>