<svg viewBox="0 0 32 32" xmlns="http://www.w3.org/2000/svg"><g stroke-width="0.3"><path d="M5,1C2.906496988728661,4.365196243875084 5.449645291940785,9.764647440558822 5,14.023165700766068C4.491477517145583,18.83930036908291 0.45868841624804857,19.616439804057283 0.19599853277591062,24.41200440167227C-0.06262608987985946,29.133355175011406 4.5656344756037015,31.455734818535475 8.368060828733686,28.81596958563316C14.466844732559267,24.581999952256627 7.475128045064372,19.480388509870224 7,14.607384250703783C6.73022320109653,11.840501715064812 6.372921234192954,8.975729996067065 7,6.267374275574564C7.100418502844522,5.8336663564868685 10.536724439286035,0.699084327051079 9.75579142519152,0C8.790514516220833,-0.8641073512664268 7.25193047506384,0.6666666666666667 6,1M7,3C7,9.103833412726825 6.757324123688486,14.941407010492139 6,21M8,1C8,8.33333333333334 8,15.66666666666666 8,23M9,21C8.171620925151053,21.82837907484895 5.544681076592873,23.856466349684826 6.297892118461501,25.2978921184615C7.2324569338965015,27.086375999709464 10.160426584065629,25.58779975162429 10.762709504634097,24.237290495365905C11.722585131379988,22.08494502032968 8.547243746646757,20.452756253353243 7,22M7,24C7.666666666666668,24 8.333333333333332,24 9,24" fill="none" stroke="#000000" /></g></svg>