<svg viewBox="0 0 32 32" xmlns="http://www.w3.org/2000/svg"><g stroke-width="0.3"><path d="M7,12C-0.9945475087602977,12 2.9867071719970406,16.19986769031398 1.4135758703018366,21.172848259396325C0.37188664490494117,24.46583484693604 -1.8051912372984544,29.095976429240984 3.5826028277725808,30C6.540859910561681,30.496369033208566 12.414247817664657,29.246360301581518 12,25.153339402470774C11.515959572698456,20.370724985504737 10.039260087350957,25.341134256092307 10,20.373971267156723C9.969536979682736,16.51980798681393 14.800256773708142,13.76754472798676 9,12M5,12C5.333333333333332,8.999999999999998 5.66666666666667,6 6,3M8,10C8,8 8,6 8,4M5,4C-1.9792990503812318,4 7,-4.092548662526323 7,3M5,1C5,2.9999999999999996 5,5.000000000000001 5,7M5,1C5,3.3333333333333335 5,5.666666666666666 5,8M5,4C5,5.333333333333336 5,6.666666666666664 5,8M6,3C6,5.333333333333334 6,7.666666666666665 6,10M6,6C6,6.666666666666666 6,7.333333333333334 6,8M5,17C4.680618624272591,17.63876275145482 4.1411266683940635,18.408612480958723 4,19.115446058341078C2.4883074681446766,26.686765160198625 13.266017632823479,17 5,17" fill="none" stroke="#000000" /></g></svg>