<svg viewBox="0 0 32 32" xmlns="http://www.w3.org/2000/svg"><g stroke-width="0.3"><path d="M16,0C10.185359132626996,1.112808841957482 2.69277788383456,3.281145966490734 0.43021910432751576,9.709342687017452C-3.203501013163503,20.033170714882836 8.455153411674468,28.526259050962565 17.59099273277726,27C31.90259452078952,24.60906349214458 34.1537157053098,1.7625892486046335 17.679972691089514,1C16.086472947243422,0.9262349927844384 14.559990897029838,1.6666666666666667 13,2M16,2C14.41185548052885,2.426209468167833 14.411584522361924,5.603514286519663 14.148493699848606,7.257531500756971C13.247044201051033,12.924825306497016 14,19.26079353754036 14,25M0,14C9.33774423532151,14 18.63060869563587,13 28,13M24,4C16.810291807449424,9.392281144412937 10.346836145657113,15.653163854342893 4,22M3,1C9.573687262920032,5.382458175280023 14.187673944321567,12.812723642699183 19,19M8,1C8,4.646593669108455 9.79917705868679,1 8,1M15,2C15,4.145911184474024 17.145911184474024,2 15,2M20,8C17.649807877722363,10.350192122277635 21.350192122277637,10.350192122277637 19,8M17,15C13.790407347307129,18.209592652692848 20.876879464832843,15 16,15M11,18C11,19.703977951650554 12.699202612277823,18.69920261227784 11,17M5,17C5,19.58935329588273 7.465095610427591,16 5,16" fill="none" stroke="#000000" /></g></svg>