<svg viewBox="0 0 32 32" xmlns="http://www.w3.org/2000/svg"><g stroke-width="0.3"><path d="M8,5C9.229971547380309,0.5041783984704695 17.922255880330244,1.0347072659783603 17,6.5667669694097865C15.914239519539914,13.079592671730897 4.93494773651578,9.546362432743972 9,5M9,4C9,2.4567859074540346 11,-0.5578887711158687 11,2M14,2C15.991469263645113,0.008530736354892987 17,-0.20399635506361724 17,3M10,9C8.680653714462913,11.638692571074174 8.864852693781213,13.987098504974153 10.717239656999942,16.434479313999883C12.280562555624172,18.499947564626762 15.55467180105739,15.779039854901328 15.983020957999903,14.033958084000194C16.274648059184244,12.84587791638629 16,11.224833354665448 16,10M16,12C20.637826934672617,16.637826934672617 24.85711052098446,8.13773065320714 24,4.102009694879381C23.679976351567436,2.5951723459965486 21.168327531396287,0.5105198427966959 21,3M8,12C5.895931340305969,12 3.1412883074909534,11.22890126442048 2.093884466230989,9.093884466230989C0.8074866932558651,6.4717049913575835 3.263321344883561,2 6,2M10,15C9.333333333333332,15.666666666666668 8.666666666666668,16.333333333333332 8,17M13,14C13.92349101160469,14.92349101160469 14.418134799986454,15.836269599972908 15,17M13,8C20.265083448482034,11.63254172424101 26.037021245969825,-0.9787138031460753 18,-1C16.489406253633785,-2.510593746366216 18.77795936946359,-4.626775051728467 20.706407820035224,-4C23.762153011382907,-3.0068363767731334 21.21907294378355,1.7809270562164483 20,3M6,2C6,-8.02744530981994 -3.0676199826270523,7 6,7" fill="none" stroke="#000000" /></g></svg>