<svg viewBox="0 0 32 32" xmlns="http://www.w3.org/2000/svg"><g stroke-width="0.3"><path d="M4,4C-0.3153962288194636,5.078849057204869 -0.7742033470394203,6 4,6M4,4C4.464865450537764,3.0702690989244723 5.129898135438989,0.7139737184720973 5.946159534886068,0.10768093022786429C10.778454322342707,-3.4815926557701316 11.183504278320244,5.632991443359518 10,8M4,6C4,13.420641155999569 6.093466336668132,15.273366584167043 13,17M9,7C13.00453459108028,8.966368093093687 15.953174593857959,9.261706351535508 20.280243470026516,8.17993913249337C22.244743747733366,7.688814063066658 27.65621770608432,5.697950503686095 29.55862089599708,7C31.693746421348912,8.461330137371561 28.199582281136628,11.932932099122564 27.30981761850274,12.690182381497259C23.07073551477203,16.297929749837557 17.238505284822505,17.746168428274164 12,16M14,16C14,19.815523114730468 14.237344142378847,20.841770571747436 11,23M14,22C14.333333333333332,22.666666666666664 14.666666666666668,23.333333333333336 15,24M15,22C15.999999999999998,22.666666666666664 16.999999999999996,23.33333333333334 18,24M23,17C23,20.580859536167466 22.526400609199897,21.473599390800103 20,24M23,22C23.333333333333343,22.66666666666666 23.666666666666657,23.333333333333336 24,24M24,23C24.666666666666668,23 25.333333333333332,23 26,23M20,10C21.333333333333332,10 22.666666666666668,10 24,10" fill="none" stroke="#000000" /></g></svg>