<svg viewBox="0 0 32 32" xmlns="http://www.w3.org/2000/svg"><g stroke-width="0.3"><path d="M18,1C15.382831625192317,-0.24193410203590116 11.701577891285979,-0.6537733723141436 9.0234731095135,0.9921756301621666C6.843779647772493,2.3318036773822906 4.402803273006745,6.678348026495192 6.908183113009349,8.908183113009349C9.564906843983941,11.272717103390537 17.940430524342876,10.70888929387035 19.957468050254693,8.042531949745307C22.73757416959298,4.367460825129708 19.975777530687182,0.4304410167782336 16,0M8,4C4.419140463832537,4 3.526400609199893,4.473599390800105 1,7M8,7C6.020502505560918,7.65983249814636 3,8.47304071553178 3,11M10,10C8.20059644788818,10.899701776055903 7,11.806003488639279 7,14M22,5C25.259173160557687,1.740826839442315 28.150447352023516,3.150447352023509 31,6M21,7C24.03583413582337,7 26.27976617518047,7.639883087590236 29,9M20,10C23.466008092414516,10 25.532234913412186,10.532234913412186 28,13M10,11C8.552331293615037,12.447668706384963 7,13.817804312092742 7,16M7,17C6.048516154007065,17.951483845992936 5.018937819513899,21.281491090205154 6.998904458938353,21.998904458938352C8.859601018680525,22.673101973449473 7.613899924087675,20.034415577472355 8.349718996877506,20.349718996877506C9.350894421702307,20.778729397049382 9.763401373186063,23.19668836839686 10.821853878376304,21.178146121623698C11.890125613733137,19.140877922741335 8.214819005848215,18.425815702510192 8,16.667699552685015C7.871000374228705,15.611944152950198 9.382395864045563,14.617604135954437 10,14M20,13C20,13.999999999999998 20,15.000000000000002 20,16" fill="none" stroke="#000000" /></g></svg>