<svg viewBox="0 0 32 32" xmlns="http://www.w3.org/2000/svg"><g stroke-width="0.3"><path d="M13,4C9.441472388409176,0.469687896262307 3.789583703274097,8.827462069840639 10.712759544315103,10.856379772157553C15.73047759281609,12.32688076875046 18.255300792430035,5.208231080593482 13,4M8,6C6.1708122636693545,2.3416245273387166 7.6036741265371806,-0.396325873462819 11,3M15,4C15,0.7433723654320121 19.675585853912946,2.3244141460870624 17,5M10,5C10,6.338783797849711 11.386031924904447,6.386031924904457 10,5M13,5C13,7.145911184474025 15.145911184474024,5 13,5M10,8C11.350358765729583,9.350358765729583 12.649641234270419,9.350358765729581 14,8M9,9C7.316000766310817,9.841999616844591 6.603482416981967,10.530780735864493 5.895636965912453,12.313089102262643C5.670532262475883,12.879887964421568 5.076284114665349,14.754471507625036 5,15.36918779523541C3.9012857727023085,24.222899133592676 21.800660402553483,18.40120972097499 14,10M16,13C18.82224145293337,11.588879273533315 20.27683328974618,9.584750065380732 22,7M7,12C5.591595420386207,10.591595420386207 4.885349281927588,8.770698563855175 4,7M8,18C3.978693438033333,18 2.655608285947854,20.68878342810429 1,24M17,17C18.634660250266744,18.634660250266744 19.270180370318098,19.81054111095432 20,22M17,16C20.320143979671972,16 23.869093335407175,15.768432472249659 26.06765229553987,12.797043113380395C28.702984661186566,9.23534716145844 25.243864478064847,5.378067760967582 30,3C30.33333333333334,2.666666666666669 30.66666666666666,2.33333333333333 31,2C31.333333333333336,1.6666666666666754 31.666666666666664,1.3333333333333268 32,1" fill="none" stroke="#000000" /></g></svg>