<svg viewBox="0 0 32 32" xmlns="http://www.w3.org/2000/svg"><g stroke-width="0.3"><path d="M0,2C3.976545481278423,2 7.322282856889895,0.3090975137968979 11.248076344481714,0C14.59851896188313,-0.2637972390629291 19.525073276807177,0.19467812393944817 22.319405265177355,2.3194052651773553C23.42013057844206,3.156364136877209 25.421155349403936,5.6333404351783525 23.0189789668584,6.9810210331416C21.83777609362267,7.643705174941107 18.48666528757295,5.795311066460424 17.575851027290486,5.525283675763496C14.149740590603301,4.509551158388058 9.667157658935079,4.715630635408082 6.149744967309176,5.170051006538165C5.368856641578898,5.270935262637631 1.537746599035088,6.375930262184039 0.6237011027955809,5.6237011027955806C-0.07040811941148739,5.052472210040568 0.20790036759852695,3.8745670342651937 0,3M1,7C3.0720460365742617,13.216138109722786 5.003031812505307,19.49898285079073 6.758614614002061,25.793073070010305C6.960926758136048,26.518399660437957 7.936303906971033,30.35084165410022 9.746769024112279,30C11.54467756203253,29.65159162726048 11.805486275667405,26.969847731867873 12.883148242458365,25.48913567672218C17.2761203639647,19.453173585935012 21.23119369511712,12.922015762207192 24,6M4,7C3.4812385924058225,7.5187614075941775 2.509222499855312,8.200190171485684 2.159444065869624,8.840555934130375C-1.5833460819085357,15.692764173758643 12.56367176405665,8.867732594092953 5.7352927762356405,7C5.177356686950585,6.847390512266955 4.5784309254118805,7 4,7M14,8C11.309261760653158,8 9.357890183100293,11.735867201455273 12.573938718541166,12C14.817895984416063,12.184295325744845 16.106482044695582,8 14,8M7,14C4.635452634031065,14 3.919291759053829,18.24470821574844 6.114293309223885,19C9.229366370329856,20.071884933390784 10.309503893428674,15 7,15M13,16C11.39129140148944,16 9.96195316918083,18.740813558723172 11.959043442470946,18.959043442470946C13.302760880171506,19.105876714927955 14.867905074305737,16 12,16" fill="none" stroke="#000000" /></g></svg>