<svg viewBox="0 0 32 32" xmlns="http://www.w3.org/2000/svg"><g stroke-width="0.3"><path d="M 9 8 C 9 6.666666666666667 8.403715206000056 5.192569587999888 9 4 C 11.755344180793788 -1.5106883615875777 23.222565757875405 -1.554868484249189 26 4 C 26.653531467909996 5.3070629358199914 26.18303461358906 8.211310257607293 25 9 C 20.706564100595777 11.862290599602813 11.17057535581688 11.341150711633759 9 7" stroke="black" fill="none" /><path d="M 9 8 C 8.666666666666666 8 8.316227766016837 8.105409255338946 8 8 C 7.292893218813452 7.764297739604484 6.723101526062187 7.180775381515547 6 7 C 4.262659257064116 6.565664814266029 1.750598557652971 7.498802884694058 1 9 C -0.00010673364122060214 11.00021346728244 7.391550942664669 13.608449057335331 10 11" stroke="black" fill="none" /><path d="M 10 10 C 10 11.05703594700086 8.230779869180713 13.230779869180713 9 14 C 9.72310785770214 14.72310785770214 12.783375071247136 13.216624928752864 14 12" stroke="black" fill="none" /><path d="M 23 11 C 25.61507936207257 16.230158724145138 29.036246573356298 14.072493146712596 27 10" stroke="black" fill="none" /><path d="M 27 8 C 28.56179491728091 9.56179491728091 31.46642312166816 8.932846243336321 31 8 C 30.257292548472464 6.5145850969449235 28.908603403791986 7 27 7" stroke="black" fill="none" /></g></svg>