<svg viewBox="0 0 32 32" xmlns="http://www.w3.org/2000/svg"><g stroke-width="0.3"><path d="M 12 7 C 12 12.605300232089103 10.53983828848935 15.938221173382841 11 21 C 11.128624465736124 22.414869123097358 12.13315447280827 24.566577236404136 13 25 C 14.431477567678725 25.715738783839363 16.512558187071708 23.43720906464147 17 21 C 17.749532588060603 17.25233705969699 16.19667516360291 8 13 8" stroke="black" fill="none" /><path d="M 13 8 C 13 5.65974051238145 12.799179987593968 5.801230018609047 14 4 C 14.612862319786485 3.0807065203202724 16.530535394269382 2.5305353942693816 17 3 C 18.177671512534243 4.1776715125342445 16.45770957076778 7 14 7" stroke="black" fill="none" /><path d="M 12 9 C 12 6.44171307123205 12.229223735202238 5.048706225337064 11 3 C 9.842636700381474 1.0710611673024577 6.533773200639823 -0.7668866003199115 5 0 C 2.38047747492922 1.30976126253539 2.239827944833103 6.413275981611035 4 7 C 6.212197318483034 7.7373991061610115 8.078362719806368 6.078362719806368 6 4" stroke="black" fill="none" /><path d="M 15 10 C 15.596202160532629 6.250602086238949 16.181240917180478 4.246033090892446 19.398481839697215 2.8671727201009283 C 22.749742702340804 1.4308734478446714 26.53327701550307 2.414215662577909 27 4.7357182122296395 C 27.29805248773589 6.218245606835522 25.647065441576494 8.828147257186048 24.172027135716345 9.827972864283655 C 23.339017335597113 10.392612118609186 21.733777664907265 9.957395058898395 21.344195466169406 10.885268177943532 C 21.042422803682047 11.604004153282876 22.906402857132708 10.903567432665852 23.67993301299546 11 C 24.67362425914325 11.12387907216962 25.70172095365724 11.17992182852113 26.634277652613324 11.544759217537775 C 30.047612181783723 12.880133312064045 31.828859033036654 15.625684517291493 30.353328144118052 18.293343711763896 C 28.220043824818454 22.15017624000338 21.41511271117779 23.106177344121832 17 20" stroke="black" fill="none" /><path d="M 12 8 C 8.260743651532245 3.4697075690339254 -0.1421005878977426 8.441604468623659 2.3417687676140466 12.341768767614047 C 3.0715253094907617 13.487630326422082 5.503994021877507 14.25570006278342 6.975587798600598 14 C 7.627179299414133 13.886781263754614 9.207650323315645 13.410624175137713 8.68921252284011 13 C 7.031417619418972 11.686957887444915 1.8718560378291775 15.402836476364863 2 18.961444486228253 C 2.1635361202928247 23.502906586488937 7.9587069849216405 26.01376433835945 14 24" stroke="black" fill="none" /><path d="M 21 9 C 19.390524291751262 9 18.52859547920898 10.528595479208981 19 11 C 20.410744349011207 12.410744349011207 20.867851130197764 9.867851130197764 20 9" stroke="black" fill="none" /><path d="M 20 19 C 18.487295183247088 19 18.554936446662364 20.277468223331184 20 21 C 21.66875318827209 21.834376594136046 22.660489710231133 20.660489710231133 21 19" stroke="black" fill="none" /><path d="M 9 8 C 7.959559885480115 8 7.15482203135576 10 9 10 C 9.597631072937816 10 10 9.235702260395517 10 8" stroke="black" fill="none" /><path d="M 11 17 C 10.091742990859824 17 9.388884871642922 20.611115128357078 11 19 C 11.471404520791031 18.528595479208967 11 17.666666666666668 11 17" stroke="black" fill="none" /><path d="M 25 7 C 23.79841266468976 8.20158733531024 25 10.016252612604022 25 8" stroke="black" fill="none" /><path d="" stroke="black" fill="none" /></g></svg>