<svg viewBox="0 0 32 32" xmlns="http://www.w3.org/2000/svg"><g stroke-width="0.3"><path d="M5,4C4.288902676691978,4 -0.18586754550115003,4.760224812659469 0.024449578879035316,5.975550421120965C0.16243079499293891,6.772880195974457 5.309984381148749,7 6,7M5,4C5.256305107390416,3.2310846778287545 5.462619838990725,1.8185115234885134 5.942544533314342,1.1723664000569736C9.512057945147681,-3.633436909002075 18.42134071520087,3.57865928479913 14,8M6,8C6,12.550122679848515 7.449877320151487,14 12,14M14,6C17.255023764841635,4.372488117579182 23.275310422995116,5.030330758863462 24.96528781211191,8.96528781211191C26.976721189248988,13.648725593869049 21.067172613700407,16.661873396344816 17.344389452148825,15.781463150716274C15.826033464517092,15.42238336819537 14.384165582372361,14.692082791186182 13,14M18,10C20.149313260869867,7.850686739130132 24.569913106105215,4.073633573472091 28.041041399524367,6.041041399524367C30.731378896220647,7.565903230692356 24.37917748455157,9.973349503300478 24.418824693437905,10C25.736545681432123,10.885760179035806 28.768028017115142,8.785234390365918 29.823662406052332,10.823662406052332C32.005769869868985,15.037307806483621 22.371216779657512,13.913460608789531 21,13M16,14C15.480302946729282,15.039394106541435 15,15.82647445188935 15,17M19,14C19,14.666666666666668 19,15.333333333333332 19,16M14,16C13.666666666666671,16.33333333333334 13.333333333333329,16.66666666666666 13,17M15,16C15,16.333333333333332 15,16.666666666666664 15,17M17,16C17,16.666666666666664 17,17.333333333333336 17,18M18,16C18,16.333333333333332 18,16.666666666666664 18,17M19,16C19.333333333333336,16.333333333333336 19.666666666666668,16.666666666666668 20,17M21,15C21.33333333333334,15.666666666666659 21.666666666666657,16.33333333333334 22,17M22,16C22,16.333333333333332 22,16.666666666666664 22,17M23,16C23,16.333333333333332 23,16.666666666666664 23,17M24,15C24,15.666666666666666 24,16.333333333333332 24,17M25,16C25,16.333333333333332 25,16.666666666666664 25,17" fill="none" stroke="#000000" /></g></svg>