<svg viewBox="0 0 32 32" xmlns="http://www.w3.org/2000/svg"><g stroke-width="0.3"><path d="M4,1C4,4.333333333333336 4,7.666666666666664 4,11M5,0C11.414522097591156,0 9,9.935492119907945 9,15M6,15C3.854092685607915,16.322805130664214 0.1420631234047447,18.776729691671274 1,22.05712601825524C1.2284036726815197,22.930447342099228 2.6801565603121182,23.093325296632543 2.9245917090150786,23.962295854507538C3.470801701659463,25.90408043231339 1.8143115623607589,27.93409943747264 2,29.942679161256667C2.459941092690812,34.91783197453342 8.309408466358377,34.12054848703391 11.758718580222064,32.747093806592645C14.038978084224233,31.83913453792475 18.011611905690536,28.978548173777682 15.101197145906527,26.101197145906525C14.371054100703773,25.379348881996872 12.916918314787218,25.80157720443718 12.199943647087986,25.066647882362663C9.647573755435253,22.450360921799298 18.05954804727689,17.896443345806368 12.06691558432737,15.06691558432737C11.142258039074243,14.630322115542034 10.02230519477579,15.02230519477579 9,15M8,21C5.620270157977427,21 3.2897583334192757,26.42947532170138 6.330686276500681,27C9.091262249283874,27.517926352833964 10.789408243844594,23.78940824384459 9,22M6,8C6,13.431814930452004 6.326272186608447,18.61017749286758 7,24M8,7C8,12.333333333333336 8,17.666666666666664 8,23M8,7C8,13.367309217210366 8.511766724446577,19.652967417805485 9,26M8,10C8,14.029049612472349 8.555370125154836,17.998331126393495 9,22" fill="none" stroke="#000000" /></g></svg>