<svg viewBox="0 0 32 32" xmlns="http://www.w3.org/2000/svg"><g stroke-width="0.3"><path d="M 0 3 C 0 8.921589810154119 0.09140060813377815 17.454471989520275 3.969445937325131 20.938891874650263 C 7.077077772917562 23.73109599926249 15.285596893184405 23.882951498539416 18.02339796227074 20.953204075458522 C 21.036497607795344 17.72885698112868 22.690147508192883 6.554172166023591 20.449659565951958 2.8993191319039155 C 19.447790088946284 1.2649940240599167 16.131404830778635 0.25372798565446736 13.908253999884849 0 C 10.092039784818061 -0.43554415299188504 6.699348982776027 0.6227429471610371 3 2" stroke="black" fill="none" /><path d="M 3 2 C 3 4.929469505333174 5.432196335674381 7.486439267134876 8 8 C 12.567265531129387 8.913453106225877 15.880827746686094 7.7461148355426035 20 5" stroke="black" fill="none" /><path d="M 21 5 C 25.37571513469072 0.6242848653092814 31.58185995730529 5.045350106736769 30 9 C 28.578152702373846 12.554618244065388 24.169282138915218 15 20 15" stroke="black" fill="none" /><path d="M 21 6 C 22.071972663370687 6 24.008425286382117 5.504212643191058 25 6 C 26.846270715315995 6.923135357657998 25.43975493054379 12 21 12" stroke="black" fill="none" /></g></svg>