<svg viewBox="0 0 32 32" xmlns="http://www.w3.org/2000/svg"><g stroke-width="0.3"><path d="M16,1C8.447425619633409,1 4.506764672633542,10.742721455049267 14.201337003640269,10C22.112133772338055,9.393937320179226 28.40362171829932,0.22820016232410756 17,0M10,5C6.419140463832536,5 5.526400609199895,5.473599390800105 3,8M11,5C9,6.333333333333331 6.999999999999996,7.666666666666666 5,9M11,6C9.710032371266974,7.2899676287330255 8.817537548125609,8.364924903748783 8,10M22,3C24.85330647643974,3 25.514231972919482,4.771347959379235 27,7M22,3C24.54506228094389,4.27253114047194 25.116669340727277,5.3500080221818465 26,8M21,5C22.289967628733024,6.289967628733024 23.182462451874393,7.364924903748785 24,9M21,3C24.0870986008232,3 25.425511168172626,3.2836741121150785 28,5M8,6C6.041918990440745,7.958081009559255 1.8964021599346665,11 7,11M9,6C9,7.54315465185329 7.843024860500144,8.735462709249786 7,10M10,4C6.444314308727432,2.222157154363716 3.695346043646265,3.3046539563537367 1,6M24,4C27.952334007124826,2.0238329964375827 29.236187608865997,4.236187608865999 32,7M24,4C27.951762396200674,2.0241188018996628 30.09780813356059,3.097808133560579 33,6" fill="none" stroke="#000000" /></g></svg>