<svg viewBox="0 0 32 32" xmlns="http://www.w3.org/2000/svg"><g stroke-width="0.3"><path d="M 5 31 C 7.067178529150599 24.798464412548206 7 20.341430491076313 7 14" stroke="black" fill="none" /><path d="M 7 14 C 6.136172178050789 13.568086089025394 4.173262123791059 12.519786371373177 4 12 C 2.9630631552221103 8.88918946566633 6.387009959334773 5.693504979667386 9 7 C 10.909882952949028 7.954941476474514 10.278713456957862 12.36064327152107 7 14" stroke="black" fill="none" /><path d="M 7 14 C 7.795373751213025 14.897686875606512 8.266735814903397 16.262436230969286 9.386121253639075 16.693060626819538 C 10.451287423402476 17.102827024042437 12.129666439383008 17.162181071188716 12.777436574960623 16.222563425039375 C 13.413824450656119 15.299456222411422 12.30102611089372 14.02784403827615 11.959813088661424 12.959813088661424 C 11.848521680154308 12.61145982847754 11.238019732214058 12.312224734316016 11.428417964268695 12 C 12.037196210094473 11.001694374946824 13.814423781524864 10.768674254842336 14 9.614210508880605 C 14.194313472598292 8.405392583232913 13.057997376226373 7.329095151158297 12.338487347238658 6.338487347238657 C 12.093339563844578 6.000972514143921 11.304578178802938 6.1907299247787595 11.21715620795275 5.782843792047251 C 10.988251154466939 4.714837704778578 12.079677653272798 3.4581233335232655 11.520093455669299 2.520093455669298 C 10.921853571014344 1.5172651264678323 9.530190852088884 0.9416030440818617 8.363938129485215 1 C 7.134601889885157 1.0615556926908807 5.70019673806887 1.7317380923833696 5.161518050624482 2.838481949375518 C 4.704528424762714 3.777391308368615 6.714726493532272 5.095549949424976 6 5.856835928537405 C 5.389129777800842 6.507500118861722 4.963447823830565 3.988609971929115 4.071037276940519 4 C 2.8865554105070537 4.015117797246062 1.6055581124564582 4.8578317991721995 1.0803738226771644 5.919626177322836 C 0.5353284407589383 7.021574833481126 0.6491218591861907 8.558600916111226 1.300586971536794 9.601173943073588 C 1.8507481493691653 10.4816250886772 3.4911838287051364 10.046426537324491 4.156881238808002 10.843118761191997 C 5.175264405098672 12.061897649600134 1.6075994775580318 13.600057726388696 2.0610923418608764 15.122184683721752 C 2.3463748617532025 16.079721721601203 3.6395804712551443 16.914433990603424 4.613878746360914 16.693060626819545 C 5.783427815952177 16.42732371825567 6.204626248786972 14.897686875606515 7 14" stroke="black" fill="none" /></g></svg>