<svg viewBox="0 0 32 32" xmlns="http://www.w3.org/2000/svg"><g stroke-width="0.3"><path d="M19,8C16.210856038727293,7.07028534624243 13.253115435292417,6.359052691342403 10.45770348081373,7.8474321730620895C5.941143578894438,10.252213720627662 11.169464404462117,14.075116043332617 13.957660404480716,14.652553468160239C18.822957314841812,15.66016000619485 24.556960931882063,8 18,8M11,9C10.333333333333334,8.333333333333334 9.666666666666663,7.666666666666669 9,7C9.944785755369235,6.055214244630764 12.81820516725447,3.1788046090553577 10.075981621783997,2.075981621783998C6.759267157518897,0.7421191949046395 9.667997317994478,5.525816307002188 7.80069491766297,5C6.722679716259921,4.69644018451787 6.23976200454752,2.161809166693929 5.613518644710121,2C3.7588133792724467,1.5207800470072297 2.2470238837662446,5.228006103146993 3.4901951841570935,6.490195184157093C4.3837885459596535,7.397458554680284 7.830265594837877,8 9,8M21,9C22.441643710858653,8.279178144570674 24,7.7883859467472 24,6C21.67465269096106,5.4072117006485705 21.12826715145174,0.7047404089460776 23.76905669874236,1C25.674670431468805,1.2130615565366853 24.25146206792332,4.191054957719125 25.806446079538414,4C27.190558241440304,3.8299394150708808 28.05728090235191,-0.8898606769038282 29.77190260339883,1.7719026033988303C32.01384659893408,5.252276262595541 26.73257179711952,8.554631291129521 24,6" fill="none" stroke="#000000" /></g></svg>