<svg viewBox="0 0 32 32" xmlns="http://www.w3.org/2000/svg"><g stroke-width="0.3"><path d="M 5 31 C 5 24.45553941453771 5.192417558552259 18.46065953158192 6 12" stroke="black" fill="none" /><path d="M 6 12 C 5.006613358053059 12 3.9688124346349114 12.293714962934702 3.0198400741591773 12 C 0.7851970132688137 11.308359093332639 -0.3717034062895521 8.700822659272937 0.3311690928327634 7.668830907167236 C 0.8441591525399734 6.91563383203466 2.561410073495424 7.7874085397565125 2.975753176957887 6.975753176957887 C 3.393234183595766 6.1579509857965204 1.940657851295671 5.31604360647589 2 4.399763450541657 C 2.061811520780462 3.4453546342811476 2.5691576554900557 2.4533526777194075 3.307976771067916 1.846011614466042 C 4.038546121764108 1.2454522124734355 5.0973787873183625 0.9970484865023783 6.039542825634164 1.0790856512683273 C 6.521580349718418 1.1210581636742987 6.559991480293961 2.368769420417588 7 2.1674876055185575 C 7.781898004120095 1.8098085100311194 7.61294575676677 0.3496686276592712 8.398458757949172 0 C 9.27601538624277 -0.3906415571057702 10.524061367601945 -0.34028322608801626 11.267723838791829 0.2677238387918293 C 12.282872923447488 1.097694207458384 11.441658292703934 3.240439937175874 12.510511410725456 4 C 13.247466772538303 4.523703258641634 14.618811518366151 4.2566628913802695 15 5.07645777419319 C 15.604216624007046 6.375903377450605 13.3590935602703 7.117383562196335 11.919218455532159 9.54039077223392 C 11.578737052505746 10.113349421009742 12.289544090086205 10.937917785325185 12 11.538228887096592 C 10.71512687827025 14.202153400673819 8.017785668390822 14.804981795932653 5 12" stroke="black" fill="none" /><path d="M 8 6 C 5.251098541958461 6 4.385107687516928 8.385107687516928 5 9 C 5.908310143694083 9.908310143694083 8 9.364018883946422 8 7" stroke="black" fill="none" /></g></svg>