<svg viewBox="0 0 32 32" xmlns="http://www.w3.org/2000/svg"><g stroke-width="0.3"><path d="M 0 15 C 5.297622959683218 20.297622959683217 13.343117539560804 22.39412947626352 19 19 C 20.501953226918793 18.098828063848725 21.558015433082957 16.11603086616591 21 15 C 19.308266189411242 11.616532378822487 15.337356388740185 10.605694873750892 11 11 C 6.426923498447003 11.415734227413909 4.628444313613793 11.371555686386207 1 15" stroke="black" fill="none" /><path d="M 1 15 C 1 19.6785562825394 -1.308238873546534 25.691761126453464 2 29 C 2.74535599249993 29.74535599249993 3.954047279263018 29.869255909907878 5 30 C 6.910712034325594 30.2388390042907 18.922334101171504 31.077665898828496 21 29 C 23.41758913981237 26.58241086018763 21.36006891161846 20.08020673485538 20 16" stroke="black" fill="none" /><path d="M 5 18 C 5 15.333333333333334 5 12.666666666666666 5 10" stroke="black" fill="none" /><path d="M 4 10 C 2.2370026539888537 10 1.6117033296127936 8.776593340774413 3 6 C 3.149071198499986 5.701857603000028 2.6666666666666665 5 3 5 C 4.3743685418725535 5 4 7.6256314581274465 4 9" stroke="black" fill="none" /><path d="M 10 17 C 10 14.333333333333334 10 11.666666666666666 10 9" stroke="black" fill="none" /><path d="M 10 9 C 7.601684420940927 9 6.833688946654013 5.166311053345987 9 3 C 10.5819762204134 1.4180237795865995 11.383461763009318 7.6165382369906816 10 9" stroke="black" fill="none" /><path d="M 15 17 C 15 14 15 11 15 8" stroke="black" fill="none" /><path d="M 15 8 C 13.503330339374054 6.503330339374054 12.33049866406805 5.3390026718638985 13 4 C 13.666666666666666 2.666666666666667 16.333333333333332 0.6666666666666667 17 2 C 17.346524247582124 2.693048495164248 16.431913910974608 5.704258267076178 16 7" stroke="black" fill="none" /><path d="M 21 18 C 20.666666666666668 17.666666666666668 20.04690650298202 17.469065029820193 20 17 C 19.701488842937003 14.014888429370032 20 11 20 8" stroke="black" fill="none" /><path d="M 20 8 C 18.370648162160396 6.370648162160396 18.464488332401935 2.7677558337990322 20 2 C 21.5794380376546 1.210280981172699 23.281023455716465 3.7189765442835343 21 6" stroke="black" fill="none" /></g></svg>