<svg viewBox="0 0 32 32" xmlns="http://www.w3.org/2000/svg"><g stroke-width="0.3"><path d="M19,7C15.919031335804204,7 12.230456417339864,6.5423713876372815 9.631583014706566,8.684208492646718C4.7750110965090515,12.686706623953349 7.18021601202685,17.871492213854136 12.6757216296235,18.8919072098745C21.46914419636839,20.524685133841846 26.707429732952097,11.64851998224892 18,7M10,10C7.268132959437866,8.634066479718934 5.234042433727768,8.765957566272231 3,11M9,12C5.5621124105232935,12 3.4459430247016387,14.10811395059671 2,17M9,15C6.952277965180435,15 5.823673297870205,17.3526534042596 5,19M26,7C28.21539440518964,7 33,6.903998234852693 33,10M25,10C27.58892583139745,10 30.14594967837963,11.145949678379628 32,13M25,13C26.333333333333332,13.666666666666666 27.666666666666668,14.333333333333334 29,15M15,6C15,4.666666666666666 15,3.333333333333335 15,2M14,1C10.109635806363418,1 14,5.537390135203255 14,1M20,7C20,6.000000000000002 20,4.999999999999999 20,4M20,2C15.684492122530429,2 24.108921618261892,6.108921618261911 20,2M11,13C9.862752368595105,13.568623815702447 9,13.65635042042685 9,15M13,14C12.279684220660537,14.720315779339463 12,14.966529519319783 12,16M14,15C13.666666666666668,15.666666666666664 13.333333333333334,16.333333333333332 13,17M24,12C25.34364957957316,12 25.43137618429754,12.862752368595105 26,14M23,13C23.333333333333343,13.666666666666664 23.666666666666657,14.333333333333336 24,15M22,13C22,13.666666666666664 22,14.333333333333334 22,15M24,5C25.252879943847518,3.7471200561524833 26.4155146446262,-2.2054169012924465 24.029908558494423,0C22.624167482790305,1.2995628847618688 24.54359024321932,5.456409756780681 27,3M28,2C28.333333333333336,1.6666666666666758 28.666666666666664,1.3333333333333277 29,1C29,0.6666666666666665 29,0.3333333333333335 29,0" fill="none" stroke="#000000" /></g></svg>