<svg viewBox="0 0 32 32" xmlns="http://www.w3.org/2000/svg"><g stroke-width="0.3"><path d="M6,0C3.2680256211060423,0 4.4404153355345795,3 6,3M7,-1C9.950123181000906,-1 8.949262746003832,3.050737253996168 7,5M6,2C6,5.333333333333336 6,8.666666666666666 6,12M7,3C7,6.333333333333334 7,9.666666666666666 7,13M5,12C-0.23490033537743304,14.909686788530948 2.8190193738267206,15.255939301343172 3,19.243779702557358C3.0754911148879502,20.90719818136533 1.2705313900842785,22.178319810046304 1,23.82132702580828C0.1285563661125645,29.113829970331096 6.6428188056827695,29.946208259869326 10.309873483583228,28.56337550547226C17.246207668254208,25.94770954231874 9.567982084755302,22.07065546287283 9.391595269290333,19.216809461419334C9.187913711161833,15.921348864194151 11.389948430141391,14.759324216320033 7,14M6,19C5.077687729240518,19.92231227075948 4.688157946840281,24.256583290501712 6.8617148948437094,23C7.846956167146614,22.43040934767055 6.998171924332134,20 6,20C6,14.589280557149849 5,9.424788623021481 5,4" fill="none" stroke="#000000" /></g></svg>