<svg viewBox="0 0 32 32" xmlns="http://www.w3.org/2000/svg"><g stroke-width="0.3"><path d="M16,1C14.03685425855767,1 11.677289873083549,0.4389418387910584 10.071426942592293,1.9285730574077067C5.1682451823801525,6.476864497405861 13.513086768859097,10.647547134004052 17.403015713346644,10C26.58356671153806,8.471735712324161 22.39303276411998,0.11627937744415265 15,0M11,2C7.051556057938255,-1.9484439420617448 0,-0.16552156020288677 0,6M8,5C4.373891592587535,3.1869457962937675 1.5878624368534242,6.8242751262931485 0,10M8,8C4.936979456906528,8 4,10.340360889087277 4,13M21,1C21,-4.125084384297517 28.59726001228653,1.5972600122865273 30,3M22,5C25.085596976302785,3.4572015118486084 25.753559972525245,4.7535599725252515 28,7M21,7C23.77099571422722,7 25.094106724676053,8.094106724676053 27,10M10,9C10,7.984874834831016 10,7.984874834831016 10,9M10,11C7.874965470431515,13.125034529568484 7.560378999630969,21.87053591786801 12.705610964617293,20.852805482308646C13.942988267471073,20.608051397370517 12.088430938517975,17.473055398217248 12.133532243043527,17.267064486087055C12.273335297266053,16.628542852160276 13.518830612977025,18.310803628568934 14,17.868388900113377C14.640308338987309,17.279652692946122 10.806524955946387,14.2110060754504 13,12M20,12C21.590761734304564,13.590761734304554 19.755481206511426,18 21,18" fill="none" stroke="#000000" /></g></svg>