<svg viewBox="0 0 32 32" xmlns="http://www.w3.org/2000/svg"><g stroke-width="0.3"><path d="M9,4C3.8792871911678883,5.654694395737061 3.604124442390689,14.480184727382705 10.018937963055578,13.990531018472211C17.27025451353173,13.43702559980547 15.7311371187691,4 9,4M5,5C5,2.3920691019025333 5.7111044893208955,-2.577791021358209 8,2M12,4C14.36211877631823,-0.7242375526364784 17.08713766187641,1.8257246762471837 15,6M7,12C6.41584169780683,13.75247490657951 5.599904856881809,15.584789289736666 5.2040207578698965,17.387937726390312C5.030597563961156,18.17783497600583 4.899431509426086,20.341549879715984 5,21.14108640552018C5.417763049112214,24.46237337115341 8.971650946031342,26.33451349650998 11.80227782179776,24.197722178202238C15.297484432165938,21.55925110147144 19.000121799556524,11 12,11M8,14C7.704226339571191,14.887320981286427 7.278845553710001,15.825237567342187 7.086704193506771,16.739887419479686C4.9671879900079094,26.829413069151233 17.18614221763955,13 10,13M14,14C15.085940731584802,12.914059268415198 18.91691859079444,8.346840040839052 20.91250132375302,10C23.344905704732692,12.015027220225369 17.020287373368625,16.234784469973533 16,17M7,14C3.828676253523788,7.657352507047576 -2.8822958674561425,13.969915269096397 1.3715960676723578,17.18579803383618C2.6375609882897244,18.142849795155914 4.521373836614052,18.507124612204688 6,19M6,25C4.7280341167288125,25.635982941635593 2.4924217148095336,26.626458548584818 2,28.140922341514216C0.5787998103395466,32.511883582688704 4.328497810297263,32.34300437940548 6,29M13,25C13.449584495116126,25.89916899023225 14.257373406278878,28.625434073069215 15.247107806052787,29C18.186113849182277,30.112269638249863 19.624577071925646,23 15,23M15,22C16.558999804383223,21.220500097808387 19.886945535418022,20.285188858192477 21.009021020679224,18.972936937962324C22.76068452005091,16.92439045348719 22.894476527335332,9.277257349716042 19.99475314471133,8C17.159724324188808,6.75123902529198 14.391595301944818,12.472603202145477 16.597733361373983,13C19.097024061970764,13.597477527196729 18.820225112362667,11.041660600069404 18,10" fill="none" stroke="#000000" /></g></svg>