<svg viewBox="0 0 32 32" xmlns="http://www.w3.org/2000/svg"><g stroke-width="0.3"><path d="M 0 5 C 0 10.600087391368767 0.4922669512213792 16.414936463435172 1 22 C 1.754699318149647 30.301692499646116 11.964163390310802 34.0358366096892 17 29 C 18.28058319274375 27.71941680725625 19.85258387152216 22.9164096702119 20 21 C 20.57281031315744 13.553465928953273 19.97706122562165 10.816489804973198 19 3" stroke="black" fill="none" /><path d="M 1 4 C 5.760954896753491 8.760954896753491 15.423605430434838 8.152789139130324 18 3" stroke="black" fill="none" /><path d="M 1 4 C 6.218495517606654 -1.2184955176066543 15.244099267667224 -1.5118014646655524 18 4" stroke="black" fill="none" /><path d="M 19 9 C 20.749421094819333 7.250578905180668 23.572693737372475 7.786346868686238 26 9 C 32.647326106343066 12.323663053171533 32.194523850195694 19.902738074902153 26 23 C 23.719279499626182 24.14036025018691 20.758502902184304 24.758502902184304 19 23" stroke="black" fill="none" /><path d="M 19 10 C 22.435685730288267 10 24.066658226103147 10.422210968137527 26 13 C 27.42818868254882 14.904251576731763 27.491598848340168 18.881300863744876 26 20 C 24.421637021355785 21.183772233983163 22.193712943361398 21 20 21" stroke="black" fill="none" /></g></svg>