<svg viewBox="0 0 32 32" xmlns="http://www.w3.org/2000/svg"><g stroke-width="0.3"><path d="M6,9C4.847499911179898,12.28803619373765 2.338000817971951,14.649687506778891 3,18.30678400939541C4.72216309193054,27.820567094655445 19.509939149198274,28.27585144953696 24.638060875295956,21.361939124704044C31.9160685468477,11.549475687167531 19.17503888609535,5.381588117123499 11,8M6,10C5.927217938196649,8.935151488767001 1.3808361615579894,3.332342254059715 0.015119955916060857,4.0100799706107075C-0.18858326240287698,4.111167849239689 0,6.996172492616254 0,7.2930855884804275C0,10.385306968876115 0.2491561614219101,12.996624645687643 1,16M21,10C21.009309041483892,8.833491053666993 24.346834429979957,0.6295430021350659 26.01429037694939,2.057161507797556C28.025453097229363,3.7790499466426715 26.40923670662406,8.953816466879706 26,11M9,13C4.841436330148289,13 10,17.702611018591995 10,12M20,12C13.655326636050333,12 23.84816862946653,15.848168629466532 20,12M13,17C11.24318786342368,18.756812136576308 15,20.449307952763093 15,17M13,18C10.869400736689732,18 -1,17.17670817401442 -1,19M13,19C9.070803407195646,19 3.8584044695717767,20.283191060856453 2,24M15,18C19.901574179973164,17.183070970004476 24.018835436452296,16 29,16M17,19C20.647999078956058,19 24.703267636502755,18.351633818251376 28,20" fill="none" stroke="#000000" /></g></svg>