<svg viewBox="0 0 32 32" xmlns="http://www.w3.org/2000/svg"><g stroke-width="0.3"><path d="M 7 9 C 7 6.349834437437677 12.530619380083234 3.3010177324687877 16 2 C 22.801000116299274 -0.5503750436122283 28.66514127070515 1.9954238121154502 31 9" stroke="black" fill="none" /><path d="M 8 8 C 12.3806949121486 12.3806949121486 23.054472598633815 9.99221820019517 30 9" stroke="black" fill="none" /><path d="M 7 9 C 3.139576476967319 9 4.509252360238344 7.3726869099404135 2 8 C 0.8078514630632625 8.298037134234184 0.3918723989110633 10.19593619945553 2 11 C 3.618034361537196 11.809017180768597 6.191257544538512 10.904371227730744 8 10" stroke="black" fill="none" /><path d="M 10 11 C 10 13.82976987467303 12 16.171441913766685 12 11" stroke="black" fill="none" /><path d="M 25 10 C 25 12.019039214924117 27 13.414992363096678 27 10" stroke="black" fill="none" /><path d="M 28 9 C 29.270277156421578 11.540554312843156 32.89381023419932 10.89381023419932 30 8" stroke="black" fill="none" /></g></svg>