<svg viewBox="0 0 32 32" xmlns="http://www.w3.org/2000/svg"><g stroke-width="0.3"><path d="M 13 9 C 11.64694064073954 6.4603303448191784 10.336404582554696 3.52221122861586 7.911292799013927 2.4556463995069633 C 4.543931884602097 0.9746801435994223 0.3499701559608782 3.9536581014660195 0 7.9779732237017225 C -0.17981418412689487 10.045660790910253 0.46510383366891017 11.516937073814987 1.9833037925986963 12.983303792598695 C 2.660359260102784 13.637243741996661 3.816346967122584 13.765001198067315 4.330353341019524 14.553568894013017 C 5.203758473150391 15.893511563303111 4.139218100721015 17.34590943088924 3.1081456947421904 19.337781457886713 C 2.168977511630705 21.15210877548174 1.3945117513224599 22.947690326606317 2 24.65095825168523 C 2.928229875251512 27.262114086780375 6.57788033299984 28.828422817906485 8.947652423751428 27.526173788124286 C 10.253862216960167 26.808378839598834 11.249837866227445 24.50032426754511 12 23" stroke="black" fill="none" /><path d="M 14 8 C 15.209611554427765 5.58077689114447 16.32217449941988 2.9453731757446953 18.543957994223963 1.7280210028880185 C 21.12307236014704 0.31488129564611866 24.51925711011817 1.4341210322761135 25 3.630540614362314 C 25.878759694714844 7.645420588758199 19.4599344871357 9.98690664330563 19 14.682761419437655 C 18.702955966067645 17.71553170407002 21.504078782417086 18.127828376664514 22 21.591488025178027 C 22.369676006620928 24.173413987929248 19.69778074952653 27.128877929923437 17.45094235083843 26.725471175419216 C 15.79502672451067 26.428161164632613 15.003314116407351 24.785341222782712 14 23" stroke="black" fill="none" /><path d="M 13 6 C 10.9391104918835 6 10.732727053040346 9.059997583443815 11 12 C 11.329841052631501 15.628251578946514 12.300827850875049 24.30082785087505 14 26 C 15.05409255338946 27.05409255338946 16 23.49071198499986 16 22 C 16 16.518371481415258 15.084867720061386 12.424338600306932 14 7" stroke="black" fill="none" /><path d="M 13 7 C 12.333333333333334 5.666666666666667 11.76696498884737 4.2782749814122845 11 3 C 10.757464374963668 2.5957739582727783 10.333333333333334 2.3333333333333335 10 2" stroke="black" fill="none" /><path d="M 13 7 C 13.333333333333334 5.333333333333334 13.666666666666666 3.6666666666666665 14 2" stroke="black" fill="none" /></g></svg>