<svg viewBox="0 0 32 32" xmlns="http://www.w3.org/2000/svg"><g stroke-width="0.3"><path d="M 10 10 C 9.333333333333334 12.333333333333332 8.588562000776614 14.645751996893548 8 17 C 7.587768705066106 18.648925179735578 5.6942749015252545 20.911895751271047 7 22 C 8.913299085508921 23.594415904590768 19.247250217352136 22 21 22 C 21.240755725904236 22 21.832036881540756 15.343704947673956 22 14 C 22.210818510677893 12.313451914576865 24.201850425154664 10.201850425154664 23 9 C 20.939256960501726 6.9392569605017265 14.396486208160175 8 11 8" stroke="black" fill="none" /><path d="" stroke="black" fill="none" /><path d="M 11 8 C 11 3.44470229742321 18.718577605701658 2.437155211403317 22 9" stroke="black" fill="none" /><path d="M 23 10 C 29.46109778897032 6.76945110551484 33.898009513508036 11.652985729737946 31 16 C 29.374441470810265 18.4383377937846 25.51997616484453 18 22 18" stroke="black" fill="none" /><path d="M 23 13 C 25.745780480397922 10.254219519602076 28.75189935369027 12.74430193892919 28 15 C 27.708171862205297 15.875484413384104 24.793022844273768 16 23 16" stroke="black" fill="none" /><path d="M 15 8 C 17.486122825375567 5.513877174624435 14.646699309097201 2.706601381805598 16 0" stroke="black" fill="none" /><path d="M 19 9 C 20.94744088064693 7.052559119353068 19 8.116788793112823 19 5 C 19 4.25464400750007 20 3.74535599249993 20 3" stroke="black" fill="none" /><path d="M 21 9 C 22.06305970735509 6.87388058528982 23 5.395221653460003 23 3" stroke="black" fill="none" /></g></svg>