<svg viewBox="0 0 32 32" xmlns="http://www.w3.org/2000/svg"><g stroke-width="0.3"><path d="M13,4C6.07053556747948,4.565341500311941 6.371392318584981,14.682336413083483 12.52313454109839,16.761567270549193C17.80473618688177,18.546698818903916 23.43926282423816,12.791551198564225 20.58193720649211,7.5819372064921104C19.23135098073475,5.119483205622702 15.44850973646248,3.81616991215416 13,3M8,6C4.244167751707721,2.2441677517077214 8.274301541461194,-2.4513969170775995 11,3M17,4C17,-0.25620779252952364 25.56172601897079,-2.123452037941597 22.419173514803337,4.161652970393329C22.03763040828021,4.9247391834395815 21.600981817848364,5.399018182151638 21,6M11,6C7.320825641116224,9.679174358883776 16.71473194640879,6 11,6M16,7C13.353777778715248,9.646222221284743 18.646222221284745,9.646222221284765 16,7M11,11C12.350358765729583,12.350358765729583 13.649641234270419,12.350358765729581 15,11M9,14C8.315486816160277,15.369026367679446 7.609207693033075,16.778378413755107 7.241352990226872,18.275941029319384C6.269696855848995,22.231622147237864 10.128595127206133,27.138275717237367 14.376605763046664,24.623394236953338C16.900770234382964,23.129053702916856 17,20.32766248053784 17,17.806693343712702C17,15.808519065707378 16.381720055121356,15.381720055121352 15,14M10,17C10,17.77679905284436 9.580395467936233,20.241924632576517 10,20.85533724733497C11.574370878358899,23.156882829657064 17.835808201968792,16 11,16M18,15C20.252677791164825,12.747322208835177 26.971940692196007,11.685822642718012 28,16.180552915508258C28.770737745098295,19.55025955497762 20.751089915738156,20 19,20M5,15C3.287903076716675,13.287903076716672 -0.31037042696071526,11.63736802135326 -1.8935137874887586,14.893513787488759C-3.771409221440211,18.755893796123416 2.139288318851516,22 5,22M6,26C1.281593308733866,30.718406691266132 7.33338690951539,32.33322618096922 10,27M12,27C12,31.154887859523292 16.667181101271606,26.667181101271606 14,24M15,22C17.61081428162832,22.87027142720944 25.30407710519306,20.887733523822817 22.610456845570074,16.610456845570074C18.532217009018474,10.134503125335964 14.413433337792949,23.58656666220705 20,18" fill="none" stroke="#000000" /></g></svg>