<svg viewBox="0 0 32 32" xmlns="http://www.w3.org/2000/svg"><g stroke-width="0.3"><path d="M0,6C1.5046534249266277,4.46447927763815 3.924705253802238,0.5535021791811379 7.092909406875847,3.1858188137516943C8.310637501280247,4.197573664263732 8,10.554345730436587 8,11.65157147654695C8,17.238431342223407 8.201012544188876,23.81995817333926 13.341760909064476,27.341760909064476C16.769737394194607,29.690184933438044 22.026646048801325,29.733082253701788 25.223130190520546,26.776869809479454C27.435456055478383,24.730838932208865 30.71116149174905,17.472487766837702 24.965177781351986,17C14.627838801838339,16.14996866408847 22.618156525352852,28.19226646953587 27.345409834470047,21.654590165529953C28.062388984177637,20.663025446865664 27.115136611490016,19.218196721843317 27,18M19,20C16.298684349535066,21.769396575456188 14.56118025891534,20.447061865609115 13.519029078915828,17.557087236747485C11.772525616198706,12.713883301140143 13.191300904323759,7.345452890371207 10.720671579129425,2.4413431582588485C7.9937909328377525,-2.971416165617441 2.3260071081795206,1.0219786754614395 1,5" fill="none" stroke="#000000" /></g></svg>