<svg viewBox="0 0 32 32" xmlns="http://www.w3.org/2000/svg"><g stroke-width="0.3"><path d="M 14 14 C 16.378825252282507 18.757650504565014 16 23.525558327436066 16 29" stroke="black" fill="none" /><path d="M 15 14 C 14 14 12.970142500145332 14.242535625036332 12 14 C 7.159155181735082 12.78978879543377 7.280580755486737 5.943883848902653 12 5 C 14.907060399035064 4.418587920192987 17.2928031025603 6.171212410241197 18 9 C 18.472653507727113 10.890614030908454 17.71965261345206 13 16 13" stroke="black" fill="none" /><path d="M 16 14 C 17.51931808281212 14.073674291927272 19.25152782137022 15.00012834278489 20.557954248436364 14.221022875781818 C 21.8692986129939 13.438984528743143 23.067616798551317 11.530789227874392 22.547618560563723 10.095237121127445 C 22.010395147338013 8.612131705934956 18.422041134493305 9.573022463948872 18.304520939618612 8 C 18.19866056495537 6.583045683638682 21.55036434423199 7.671599556641295 22.275246751939992 6.449506496120018 C 23.048912972656403 5.145167875892232 22.84065051275771 3.114959179878422 21.91426452388864 1.9142645238886398 C 19.977449141511332 -0.5960539688362352 15.844959478049146 -0.6676405759188007 12.987277374312281 2.025445251375438 C 12.495762883873068 2.4886495757405105 13.57859846297302 4.399939862801337 13 4.051559956567522 C 11.734513267140336 3.2895977711367874 11.748821656632627 1.0597446400052815 10.3964540488722 0.4654846829574002 C 8.897714944776746 -0.1930941165604918 6.9559863257583565 0.01711182731011618 5.493724190926875 0.7531379045365629 C 1.7162137935828654 2.6545385448257592 1.1613150134011252 7.296835254122149 3.411038687945677 9.205519343972838 C 4.652895119149706 10.259120565730772 6.777363601020157 9.076522253733051 8.268379982666833 9.731620017333167 C 9.23678041083431 10.157099551006219 5.98990498768994 9.37298385092657 5.102568942114159 9.948715528942921 C 1.1544048787879113 12.510409187840445 1.1235300599313738 15.85709221234959 4.113033553556441 18.05651677677822 C 6.766981285098259 20.009067709035065 11.322925846635979 19.167028699455077 13.326595684781896 16.346808630436207 C 14.175792873654299 15.151540373651706 13.7755318949273 13.448936210145403 14 12" stroke="black" fill="none" /><path d="M 17 21 C 17 18.94766555203929 22.202690210488694 17.101345105244345 24 18 C 24.942809041582063 18.471404520791033 23.74535599249993 20.25464400750007 23 21 C 22.56338056838959 21.43661943161041 18.987048159266788 22.670983946911072 18 23" stroke="black" fill="none" /><path d="M 16 22 C 14.030069314467854 20.030069314467852 10.047950400655553 22.095900801311107 11 24 C 11.8718643723438 25.7437287446876 14.503544793592786 26 17 26" stroke="black" fill="none" /></g></svg>