<svg viewBox="0 0 32 32" xmlns="http://www.w3.org/2000/svg"><g stroke-width="0.3"><path d="M17,7C12.492172412392804,7 8.502134497509624,7.467513599529194 5.1619388394497605,10.83806116055024C1.5259809187102706,14.507058535644726 3.790556009853825,18.905621814688573 8.60057831732206,20C16.566527134371796,21.812415837895603 26.147413248311864,14.098275498874575 17,8M20,10C23.038497644750006,10 25,9.39188986233749 25,6C24.0709161283464,5.919667201613031 20.676635398970667,3.2635525469170648 22.018982609302128,2C23.028470006599385,1.0497686722791637 23.322226387442242,2.985191325776879 23.909826000263376,2.9098260002633776C24.89519026156321,2.7834435168820644 24.003706459883325,0.5257363200300166 24.900877512421943,0.09912248757805686C29.354911622219092,-2.018815397372291 27.600126010502617,5.399873989497383 26,7M5,12C1.8016189153215247,10.400809457660756 1.447547063111399,8.104905873777202 3,5C1.6188092711496955,3.618809271149695 2.0022379127443877,-0.48438405369312504 4.714485054109514,0C6.627287940535643,0.341610173318003 5.1280013527430945,1.3564125700744958 5.093562073287686,1.906437926712314C5.032699201960957,2.8784711119834885 8.02610319933523,0.6335288066979926 8,1.6071156930923318C7.956765405786836,3.2196626236023365 5.098164137099769,3.63394528763341 4,4M4,16C2.320207165671376,16 1,19.38382967138974 1,21M6,19C4.320207165671377,19 3,22.38382967138974 3,24M7,22C5.966529519319781,23.03347048068021 6,23.559368441321073 6,25M21,17C22.654032827641057,17.827016413820527 23.17298358617947,18.345967172358943 24,20M20,19C20.72031577933946,19.72031577933946 21,19.966529519319785 21,21M17,20C17.33333333333334,20.666666666666657 17.666666666666657,21.33333333333334 18,22M22,12C23.039394106541433,12.519697053270717 23.826474451889354,13 25,13M23,10C23.999999999999996,10 25,10 26,10" fill="none" stroke="#000000" /></g></svg>