<svg viewBox="0 0 32 32" xmlns="http://www.w3.org/2000/svg"><g stroke-width="0.3"><path d="M18,1C15.79428110997005,0.2647603699900176 13.806437091633263,-0.5735414018459779 11.585227702809693,0.7073861485951538C6.365370682015078,3.7175745175722286 9.85671028299778,9.150232514378871 14.475292414266304,10C18.08410179515234,10.663980586795194 28.479995296583976,6.06287481484895 22.48643778074665,1.8288125935822164C20.9299181230674,0.7292317416717593 17.822344623424048,0.45558615585601203 16,0M10,2C5.726154480397961,0.5753848267993189 1,0.26954109336861265 1,6M10,5C6.725729911945363,5 4,5.039587192448174 4,9M11,7C8.636731392186027,8.181634303906986 8,9.350777218666575 8,12M24,2C27.774430090012206,2 32,2.1793017532720516 32,7M22,5C25.546698966270306,5 29,5.735773319377978 29,10M22,8C25.55869300829823,8 27,9.268830918577141 27,13M21,10C22.90589327532395,11.90589327532394 24,13.229004285772785 24,16" fill="none" stroke="#000000" /></g></svg>