<svg viewBox="0 0 32 32" xmlns="http://www.w3.org/2000/svg"><g stroke-width="0.3"><path d="M5,5C2.4569625508256165,6.0172149796697525 -2.0203311397909633,7 3,7M5,4C5,0.4296933315905931 9.481458973389389,-1.917390612764024 11.721299159139171,1.7212991591391706C15.055036601291848,7.137058912958847 9.531651642930052,10.265825821465025 5,8M10,9C5.499862389845583,18.000275220308836 24.17931934092202,18.287313228032517 26.914327390554018,12.085672609445982C30.136872036228674,4.778541000632777 17.032933101356086,5.839783223414733 14,8M16,7C17.25535878822759,4.489282423544825 22.47244055732681,-1.7861875990325786 26.04663194927118,0.04663194927118053C28.079180779078357,1.0889083188435311 24.556244215705803,4.8377175783001025 25.687994095085447,5C26.388148957316332,5.100395704632253 29.340025612474694,2.9139240748683073 30,4.3332231756048545C30.888100045385805,6.243114861714917 27.041336990137843,8.305775339908104 26,9M14,14C12.826474451889354,15.173525548110646 12.519697053270713,16.44090884018785 12,18M12,19C11.333333333333332,19 10.666666666666668,19 10,19M12,18C12,18.66666666666666 12,19.33333333333334 12,20M12,18C12.333333333333332,18.666666666666664 12.666666666666666,19.333333333333332 13,20M22,14C22,15.333333333333336 22,16.666666666666664 22,18C21.666666666666668,18 21.333333333333336,18 21,18M22,18C22.33333333333334,18.666666666666657 22.66666666666666,19.333333333333343 23,20M22,18C22,18.333333333333336 22,18.666666666666664 22,19" fill="none" stroke="#000000" /></g></svg>