<svg viewBox="0 0 32 32" xmlns="http://www.w3.org/2000/svg"><g stroke-width="0.3"><path d="M 9 11 C 8.666666666666666 14.666666666666666 7.341381918121148 18.377600549666315 8 22 C 8.178885438199984 22.98386991009991 10 22 11 22 C 14.666666666666666 22 18.34413355316087 21.718779504089298 22 22 C 22.743160535617537 22.057166195047504 23.764297739604483 23.707106781186546 24 23 C 24.737864787372622 20.786405637882133 24 18.333333333333332 24 16 C 24 14.333333333333334 24 12.666666666666666 24 11 C 24 10.360226139076048 18.59351695433022 9.783873587139148 16 10 C 14.306197910840414 10.141150174096632 12.666666666666666 10.666666666666666 11 11" stroke="black" fill="none" /><path d="M 13 10 C 13 9 13 8 13 7" stroke="black" fill="none" /><path d="M 18 11 C 18 9.333333333333334 18 7.666666666666667 18 6" stroke="black" fill="none" /><path d="M 22 11 C 22 9 22 7 22 5" stroke="black" fill="none" /><path d="M 25 11 C 25 9.333333333333334 25 7.666666666666667 25 6" stroke="black" fill="none" /><path d="M 25 5 C 23.58153524093617 3.581535240936171 23.58153524093617 2.41846475906383 25 1" stroke="black" fill="none" /><path d="M 22 5 C 22 3.1966782972980865 21 2.5847139021586605 21 1" stroke="black" fill="none" /><path d="M 17 5 C 17 2.4950937914128537 16 2.5049062085871463 16 0" stroke="black" fill="none" /><path d="M 12 5 C 12 2.2808440709032363 10.244350312804807 1.7556496871951937 12 0" stroke="black" fill="none" /><path d="M 9 5 C 7.540071468231282 3.5400714682312824 8 2.089382711177344 8 0" stroke="black" fill="none" /><path d="M 5 19 C 2.0854727884430253 19 -2.7373153159185026 22.525369368162995 -2 24 C -1.423554537795439 25.15289092440912 1.6168855529891437 26.692641233997588 3 27 C 7.098901664647567 27.91086703658835 11.848189955267008 28.319370003440998 16 28 C 18.91961076593317 27.77541455646668 23.271260897363764 27.296554326977176 25 26 C 28.451065521614233 23.411700858789324 29.16185680813777 21.080928404068885 25 19" stroke="black" fill="none" /></g></svg>