<svg viewBox="0 0 32 32" xmlns="http://www.w3.org/2000/svg"><g stroke-width="0.3"><path d="M 8 31 C 8 26 8 21 8 16" stroke="black" fill="none" /><path d="M 8 16 C 6.654866052577524 15.994099692955428 5.241442535010539 16.405487673165837 3.964598157732572 15.982299078866285 C 1.223441832498878 15.073788916880869 -0.5610578021623955 12.35035000452933 0 9.767608128614635 C 0.2921472651968804 8.422753867877448 3.1208171147851496 8.30199497352999 3 6.931087889895226 C 2.884915165170569 5.6252247630760746 1.8036201983764582 4.423707341705788 2 3.1275754044756674 C 2.405421391080333 0.45174210252121405 4.775095513592503 -1.1854261205888053 7.50129969978092 -0.4987003002190804 C 8.417545125407583 -0.267899762694709 8.709204020242346 1.268560661856032 9.650607657073339 1.3493923429266603 C 10.945739705281747 1.46059618426462 12.063081158954923 -0.36936418753031797 13.309397095463357 0 C 14.391822636612869 0.3207928414113227 15.218282616908432 1.8271061975947958 15 2.9347639960096177 C 14.782147283011742 4.040240301432173 11.748029552568699 4.031638895430491 12.324062919056082 5 C 13.00648197877598 6.147204507404379 15.091225724315956 4.653753194674608 16.32525252866599 5.162626264332997 C 17.472670072586308 5.635784453195965 19.119390753721795 6.517551055372641 19 7.752942305021898 C 18.876133587548864 9.034645261887025 16.794528916059186 9.116502940105875 15.857758771931627 10 C 14.852417786063487 10.94816835354289 17.56124010837149 12.722502728714545 17 13.985334176407276 C 16.114863572959667 15.976956120192256 13.650793652405692 16.00701356650429 10 15" stroke="black" fill="none" /><path d="M 10 8 C 9.264297739604485 7.264297739604485 8.195262145875635 6.804737854124365 8 7 C 6.80601594526267 8.19398405473733 8.90514108057845 10.547429459710775 10 10 C 11.566620657959493 9.216689671020253 11.39507264955401 7 9 7" stroke="black" fill="none" /></g></svg>