<svg viewBox="0 0 32 32" xmlns="http://www.w3.org/2000/svg"><g stroke-width="0.3"><path d="M4,3C2.9805520990521837,3.5097239504739077 -1.3231058563892182,6.093243762124808 0,7.895939702297154C0.49055093054292714,8.564302076076386 5.1221730622751735,8 6,8M5,3C5,1.3418115606942635 7.179884423705223,-0.7534359186433729 8.999674105128827,0C11.62129196615898,1.0854117273112187 11.595948319829382,7.4040516801706175 10,9M5,7C7.649805255979265,10.133058121271969 5.923322252301709,14.45301918930414 9.168171989558095,17.0560573298527C15.482617803720096,22.121544061632346 25.43173502257221,10.76366430363791 14.783559253141522,8.26118641771384C13.296989158104871,7.911820585550821 12.513969229094196,8 11,8C11.663427451781178,11.231490121995716 17.196353656969738,14.912724725215035 20.573325707396872,14C24.525590729270093,12.931785649333415 19.79693676701649,10.655013767016806 18.560345055194333,10.186781685064778C17.710546944065314,9.865007945997323 16.966677273094792,9.26637265186079 16.085895525065947,9.042947762532973C14.890498951885633,8.739715608070894 13.22939063193402,9 12,9M11,15C11,16.666666666666664 11,18.333333333333332 11,20M15,16C15,17 15,18 15,19M11,20C10.333333333333337,20.333333333333343 9.666666666666663,20.666666666666657 9,21M12,20C12.333333333333334,20.666666666666668 12.666666666666666,21.333333333333332 13,22M12,21C11.666666666666668,21.333333333333343 11.33333333333333,21.666666666666657 11,22M14,21C14.333333333333334,21.666666666666668 14.666666666666666,22.333333333333332 15,23M14,21C14,21.666666666666668 14,22.333333333333332 14,23M16,20C16,20.33333333333334 16,20.666666666666664 16,21M16,20C16,20.33333333333334 16,20.666666666666664 16,21M17,20C17,20.33333333333334 17,20.666666666666664 17,21M17,19C17.333333333333336,19.333333333333336 17.666666666666668,19.666666666666668 18,20M18,18C18.333333333333336,18.333333333333336 18.666666666666664,18.666666666666664 19,19" fill="none" stroke="#000000" /></g></svg>