<svg viewBox="0 0 32 32" xmlns="http://www.w3.org/2000/svg"><g stroke-width="0.3"><path d="M 9 11 C 8.666666666666666 14.666666666666666 7.341381918121148 18.377600549666315 8 22 C 8.178885438199984 22.98386991009991 10 22 11 22 C 14.666666666666666 22 18.34413355316087 21.718779504089298 22 22 C 22.743160535617537 22.057166195047504 23.764297739604483 23.707106781186546 24 23 C 25.264911064067352 19.205266807797944 24.784464540552737 14.922322702763681 24 11 C 23.803883864861817 10.01941932430908 22 11 21 11 C 17.333333333333332 11 13.666666666666666 11 10 11" stroke="black" fill="none" /><path d="M 14 10 C 14 9.858426112533282 13.68917271501699 5.062165456996602 14 5 C 17.8477475158612 4.2304504968277605 20.61390981195055 4.930450940247258 20 8 C 19.79327544235132 9.033622788243404 19.333333333333332 10 19 11" stroke="black" fill="none" /><path d="M 17 4 C 17 3 17 2 17 1" stroke="black" fill="none" /><path d="M 17 1 C 15.959559885480122 1 15.154822031355753 -1 17 -1 C 17.666666666666668 -1 17.471404520791033 0.5285954792089684 17 1" stroke="black" fill="none" /><path d="M 6 19 C 3.1881925972126504 19 0.17281248875045785 18.55145834083303 -2 20 C -2.5547001962252294 20.36980013081682 -2.471404520791032 21.528595479208967 -2 22 C -1.6569593767894029 22.343040623210598 2.083071472456629 23.83328572226484 3 24 C 8.758427185211296 25.046986760947508 15.139022154151547 25.450844449680652 21 25 C 22.050987708490776 24.919154791654556 23.02129963414216 24.391480146343135 24 24 C 27.81154044966125 22.475383820135498 27.767704510936017 20 22 20" stroke="black" fill="none" /><path d="M 2 20 C 3.333333333333333 20 4.666666666666667 20 6 20" stroke="black" fill="none" /><path d="" stroke="black" fill="none" /><path d="" stroke="black" fill="none" /><path d="M 6 20 C 6.666666666666667 20 7.333333333333333 20 8 20" stroke="black" fill="none" /><path d="" stroke="black" fill="none" /><path d="" stroke="black" fill="none" /><path d="" stroke="black" fill="none" /><path d="" stroke="black" fill="none" /><path d="" stroke="black" fill="none" /><path d="" stroke="black" fill="none" /><path d="" stroke="black" fill="none" /><path d="" stroke="black" fill="none" /><path d="" stroke="black" fill="none" /><path d="" stroke="black" fill="none" /><path d="" stroke="black" fill="none" /><path d="" stroke="black" fill="none" /><path d="" stroke="black" fill="none" /><path d="" stroke="black" fill="none" /><path d="" stroke="black" fill="none" /><path d="" stroke="black" fill="none" /><path d="" stroke="black" fill="none" /><path d="" stroke="black" fill="none" /><path d="" stroke="black" fill="none" /><path d="" stroke="black" fill="none" /><path d="" stroke="black" fill="none" /><path d="" stroke="black" fill="none" /><path d="" stroke="black" fill="none" /><path d="" stroke="black" fill="none" /><path d="" stroke="black" fill="none" /><path d="" stroke="black" fill="none" /><path d="" stroke="black" fill="none" /><path d="" stroke="black" fill="none" /><path d="" stroke="black" fill="none" /><path d="" stroke="black" fill="none" /><path d="" stroke="black" fill="none" /><path d="" stroke="black" fill="none" /><path d="" stroke="black" fill="none" /><path d="" stroke="black" fill="none" /><path d="" stroke="black" fill="none" /><path d="" stroke="black" fill="none" /><path d="" stroke="black" fill="none" /><path d="" stroke="black" fill="none" /><path d="" stroke="black" fill="none" /><path d="" stroke="black" fill="none" /><path d="" stroke="black" fill="none" /><path d="" stroke="black" fill="none" /><path d="" stroke="black" fill="none" /><path d="" stroke="black" fill="none" /><path d="" stroke="black" fill="none" /><path d="" stroke="black" fill="none" /><path d="" stroke="black" fill="none" /><path d="" stroke="black" fill="none" /><path d="" stroke="black" fill="none" /><path d="" stroke="black" fill="none" /><path d="" stroke="black" fill="none" /><path d="" stroke="black" fill="none" /><path d="" stroke="black" fill="none" /><path d="" stroke="black" fill="none" /><path d="" stroke="black" fill="none" /><path d="" stroke="black" fill="none" /><path d="" stroke="black" fill="none" /><path d="" stroke="black" fill="none" /><path d="" stroke="black" fill="none" /><path d="" stroke="black" fill="none" /><path d="" stroke="black" fill="none" /><path d="" stroke="black" fill="none" /><path d="" stroke="black" fill="none" /><path d="" stroke="black" fill="none" /><path d="" stroke="black" fill="none" /><path d="" stroke="black" fill="none" /><path d="" stroke="black" fill="none" /><path d="" stroke="black" fill="none" /><path d="" stroke="black" fill="none" /><path d="" stroke="black" fill="none" /></g></svg>