<svg viewBox="0 0 32 32" xmlns="http://www.w3.org/2000/svg"><g stroke-width="0.3"><path d="M16,8C12.911963871159486,8 9.646737226802472,8.55918906289394 7.286656114312112,10.808895923791926C4.407064418958564,13.553817341677389 6.96899252349429,16.634525703896788 10.192443872541306,17C12.829082918456008,17.298941629650717 17.049279839616165,17.532767617765717 19.53283981574387,16.489053394752045C22.00129967327653,15.451684985287603 24.348712149270565,11.411058108092778 21.743640535928353,9.371820267964177C19.773888211975923,7.829907387676157 17.32979687079368,8 15,8M7,12C3.2688309185771405,12 2,10.558693008298237 2,7C1.2021854412388002,6.6010927206194 -3.640500599672232,2.6961828806892454 -0.1306413354190752,2.1306413354190754C1.902128335792889,1.8031023617787265 -0.15032509094918778,5.762696310460496 1.9875252585305776,5C2.212225262012474,4.91983636101666 4.878234449816638,2.0456537978513576 5,2.3313781406711525C5.63434502700559,3.8198764531186624 2.83391475381031,6.16608524618969 2,7M21,10C25.35004489160653,10 27,5.538269799539908 27,2M27,3C25.739703499755237,3 23.547022559893737,3.4307178807178698 23,1.816909533532816C22.88512634987975,1.4780129888058762 23.054444380480327,-1.2677479363969701 24.09698047103504,-0.8060390579299206C25.062135415039286,-0.378600036124906 24.928717701059664,2.8022539752057947 26.305914670758288,2.847042664620856C27.14668771064581,2.874385973806557 29.056481081121053,0.2939266532804952 29.20893419972325,0.41786839944649623C30.807298616023598,1.7173109991271758 28.830584054048202,3.1694159459517977 28,4M8,14C6.602834073197603,14 5,14.486638923933977 5,16M9,15C7.559368441321074,16.440631558678927 7,16.93305903863957 7,19M11,16C10.035253850188276,16.964746149811713 9,17.599715517272745 9,19M24,14C25.000000000000007,14.999999999999995 25.999999999999996,15.999999999999998 27,17M24,14C25.000000000000007,14.999999999999996 25.999999999999996,15.999999999999996 27,17M23,14C24.635075096251217,14.817537548125609 25.710032371266976,15.710032371266978 27,17" fill="none" stroke="#000000" /></g></svg>