<svg viewBox="0 0 32 32" xmlns="http://www.w3.org/2000/svg"><g stroke-width="0.3"><path d="M 13 6 C 11.148628348790522 9.702743302418956 10.034139826560505 14.13655930624202 11 18 C 11.214925855225289 18.859703420901152 12.754911216699657 19.41502959443345 14 19 C 18.278926158377462 17.573691280540846 17.09659670110901 6 13 6" stroke="black" fill="none" /><path d="M 13 6 C 13 2.763932022500207 13.674974119833209 4.349948239666417 12 1" stroke="black" fill="none" /><path d="M 14 5 C 14.666666666666666 3.666666666666667 15.333333333333334 2.333333333333333 16 1" stroke="black" fill="none" /><path d="M 16 6 C 17.6601906835878 3.224274336760761 19.402711239272683 1.2189034379121388 22.32294189607839 0.3385290519608045 C 25.702376232264363 -0.6802834249402389 28.952216432275232 0.8518391218857433 29 3.37240157228684 C 29.021070544144397 4.483863627313715 27.218624663839346 7.585515392267302 26.32616508263338 8.33691745868331 C 25.579922012043966 8.965213234870514 24.267402723327606 8.846118943331927 23.70857707456235 9.645711462718825 C 23.42840400683351 10.04659551230504 24.680468986355233 9.843913382672262 25.11177689481666 10.074517929877773 C 25.97205202303425 10.534475543737578 26.827605752851408 11.0388084922362 27.54681564865405 11.697877099102701 C 28.82356495089275 12.867862925014004 30.336250652065154 15.325021137211507 30 16.731953695255054 C 29.67163545262843 18.10588938806906 27.146423651884906 19.521205725553948 25.506150276396234 20.164616574534588 C 21.364282277591585 21.78929868259033 18.273705936466293 21.204895615125206 15 18" stroke="black" fill="none" /><path d="M 11 6 C 8.659644570570993 1.6111235108644264 3.7826848955248735 0.4504484596814038 1.1009555735727932 2.949522213213603 C -0.6677996619463804 4.597805561322371 -0.3867210255010649 7.930158379065949 1.6507915501642718 9.325395775082136 C 2.780559886329134 10.09903273334114 6.122836818218308 8.871006513119726 5.672089019010881 10.16395549049456 C 4.8406170195320986 12.54899402719339 0.7652872604214958 13.146597178382912 0.22102407521554146 14.668463887176689 C -1.0765312299817578 18.296683240376687 5.6328262241303655 22.36717377586963 10 18" stroke="black" fill="none" /></g></svg>